STARTFONT 2.1
COMMENT
COMMENT Converted from OpenType font "CircularStd-Book.otf" by "otf2bdf 3.0".
COMMENT
FONT -FreeType-Circular Std Book-Medium-R-Normal--26-190-100-100-P-132-ISO10646-1
SIZE 19 100 100
FONTBOUNDINGBOX 40 30 -1 -6
STARTPROPERTIES 19
FOUNDRY "FreeType"
FAMILY_NAME "Circular Std Book"
WEIGHT_NAME "Medium"
SLANT "R"
SETWIDTH_NAME "Normal"
ADD_STYLE_NAME ""
PIXEL_SIZE 26
POINT_SIZE 190
RESOLUTION_X 100
RESOLUTION_Y 100
SPACING "P"
AVERAGE_WIDTH 132
CHARSET_REGISTRY "ISO10646"
CHARSET_ENCODING "1"
FONT_ASCENT 25
FONT_DESCENT 6
COPYRIGHT "Generated in 2013 by FontLab Studio. Copyright info pending."
_OTF_FONTFILE "CircularStd-Book.otf"
_OTF_PSNAME "CircularStd-Book"
ENDPROPERTIES
CHARS 332
STARTCHAR 0000
ENCODING 0
SWIDTH 0 0
DWIDTH 0 0
BBX 0 0 0 0
BITMAP
ENDCHAR
STARTCHAR 000D
ENCODING 13
SWIDTH 265 0
DWIDTH 7 0
BBX 0 0 0 0
BITMAP
ENDCHAR
STARTCHAR 0020
ENCODING 32
SWIDTH 265 0
DWIDTH 7 0
BBX 0 0 0 0
BITMAP
ENDCHAR
STARTCHAR 0021
ENCODING 33
SWIDTH 303 0
DWIDTH 8 0
BBX 4 19 2 0
BITMAP
70
70
70
60
60
60
60
60
60
60
60
60
60
00
00
00
70
F0
60
ENDCHAR
STARTCHAR 0022
ENCODING 34
SWIDTH 378 0
DWIDTH 10 0
BBX 8 7 1 10
BITMAP
E6
E7
E7
E6
66
46
42
ENDCHAR
STARTCHAR 0023
ENCODING 35
SWIDTH 720 0
DWIDTH 19 0
BBX 17 17 1 0
BITMAP
030C00
030C00
030C00
031C00
3FFF80
3FFF80
061800
061800
0E3800
0C3000
FFFF00
FFFF00
0C3000
1C7000
186000
186000
186000
ENDCHAR
STARTCHAR 0024
ENCODING 36
SWIDTH 606 0
DWIDTH 16 0
BBX 13 23 1 -3
BITMAP
0300
0300
0300
0FE0
3FF0
3B78
7338
7310
7300
7B00
3F80
1FE0
03F0
0378
2338
E318
7338
7B38
3FF0
1FE0
0300
0300
0300
ENDCHAR
STARTCHAR 0025
ENCODING 37
SWIDTH 833 0
DWIDTH 22 0
BBX 19 17 1 0
BITMAP
1E0380
7F0300
638600
E18E00
E18C00
639800
7F3800
3E7000
006000
00C780
01CFE0
019CE0
031860
071860
0E1CE0
0C0FC0
180780
ENDCHAR
STARTCHAR 0026
ENCODING 38
SWIDTH 682 0
DWIDTH 18 0
BBX 16 19 2 0
BITMAP
0F00
3FC0
79C0
70E0
60E0
70E0
71C0
3B80
1F00
1E02
3F06
738E
E1DC
E0F8
E070
E0F8
FBDC
7F8E
1F0F
ENDCHAR
STARTCHAR 0027
ENCODING 39
SWIDTH 189 0
DWIDTH 5 0
BBX 3 7 1 10
BITMAP
E0
E0
E0
E0
60
40
40
ENDCHAR
STARTCHAR 0028
ENCODING 40
SWIDTH 303 0
DWIDTH 8 0
BBX 7 25 1 -4
BITMAP
04
0E
1C
18
38
30
70
60
60
60
60
E0
E0
E0
60
60
60
60
70
30
38
18
1C
0E
04
ENDCHAR
STARTCHAR 0029
ENCODING 41
SWIDTH 303 0
DWIDTH 8 0
BBX 7 25 0 -4
BITMAP
40
E0
70
30
38
18
1C
0C
0C
0C
0C
0E
0E
0E
0C
0C
0C
0C
1C
18
38
30
70
E0
40
ENDCHAR
STARTCHAR 002A
ENCODING 42
SWIDTH 454 0
DWIDTH 12 0
BBX 10 10 1 9
BITMAP
0C00
0C00
0C00
ED80
FFC0
3E00
1E00
3700
7300
2100
ENDCHAR
STARTCHAR 002B
ENCODING 43
SWIDTH 568 0
DWIDTH 15 0
BBX 13 13 1 1
BITMAP
0700
0700
0700
0700
0700
FFF8
FFF8
0700
0700
0700
0700
0700
0700
ENDCHAR
STARTCHAR 002C
ENCODING 44
SWIDTH 303 0
DWIDTH 8 0
BBX 4 7 2 -4
BITMAP
E0
F0
F0
30
20
E0
80
ENDCHAR
STARTCHAR 002D
ENCODING 45
SWIDTH 378 0
DWIDTH 10 0
BBX 7 2 1 7
BITMAP
FE
FE
ENDCHAR
STARTCHAR 002E
ENCODING 46
SWIDTH 265 0
DWIDTH 7 0
BBX 3 4 2 0
BITMAP
60
E0
E0
E0
ENDCHAR
STARTCHAR 002F
ENCODING 47
SWIDTH 416 0
DWIDTH 11 0
BBX 11 19 0 0
BITMAP
0060
00E0
00C0
01C0
0180
0380
0300
0700
0600
0600
0C00
0C00
1800
1800
3800
3000
7000
6000
E000
ENDCHAR
STARTCHAR 0030
ENCODING 48
SWIDTH 606 0
DWIDTH 16 0
BBX 14 17 1 0
BITMAP
07C0
1FE0
3CF0
7038
7018
601C
E01C
E01C
E01C
E01C
E01C
601C
7018
7038
3CF0
1FE0
0FC0
ENDCHAR
STARTCHAR 0031
ENCODING 49
SWIDTH 341 0
DWIDTH 9 0
BBX 6 17 1 0
BITMAP
0C
1C
3C
FC
FC
0C
0C
0C
0C
0C
0C
0C
0C
0C
0C
0C
0C
ENDCHAR
STARTCHAR 0032
ENCODING 50
SWIDTH 530 0
DWIDTH 14 0
BBX 12 17 1 0
BITMAP
1F80
3FC0
79E0
E070
E070
E070
0070
00E0
01E0
07C0
0F00
1E00
3800
7000
E000
FFF0
FFF0
ENDCHAR
STARTCHAR 0033
ENCODING 51
SWIDTH 568 0
DWIDTH 15 0
BBX 13 17 1 0
BITMAP
7FF0
7FF0
0070
00E0
03C0
0780
0F00
0FC0
0FE0
00F0
0030
2038
E030
E070
78F0
3FE0
0F80
ENDCHAR
STARTCHAR 0034
ENCODING 52
SWIDTH 568 0
DWIDTH 15 0
BBX 14 17 1 0
BITMAP
01E0
03E0
07E0
07E0
0EE0
1CE0
18E0
38E0
70E0
E0E0
C0E0
FFFC
FFFC
00E0
00E0
00E0
00E0
ENDCHAR
STARTCHAR 0035
ENCODING 53
SWIDTH 530 0
DWIDTH 14 0
BBX 13 17 1 0
BITMAP
1FF0
3FF0
3000
3000
3000
7000
6FC0
7FE0
70F0
0070
0038
0038
E030
E070
78F0
3FE0
0F80
ENDCHAR
STARTCHAR 0036
ENCODING 54
SWIDTH 568 0
DWIDTH 15 0
BBX 13 17 1 0
BITMAP
03F0
0FF8
1F30
3800
7000
7000
67E0
7FF0
F878
F038
E018
6018
7018
7038
3C70
1FE0
0FC0
ENDCHAR
STARTCHAR 0037
ENCODING 55
SWIDTH 492 0
DWIDTH 13 0
BBX 13 17 0 0
BITMAP
FFF8
FFF8
0038
0060
00C0
01C0
0380
0300
0700
0600
0E00
0E00
0C00
1C00
1C00
1C00
1800
ENDCHAR
STARTCHAR 0038
ENCODING 56
SWIDTH 568 0
DWIDTH 15 0
BBX 13 17 1 0
BITMAP
0F80
3FE0
78F0
7070
6030
6070
78E0
3FC0
1FC0
78F0
6070
E038
E038
E030
78F0
3FE0
1F80
ENDCHAR
STARTCHAR 0039
ENCODING 57
SWIDTH 568 0
DWIDTH 15 0
BBX 13 17 1 0
BITMAP
0F80
3FE0
78F0
6070
E038
E038
E038
E078
70F8
3FF8
1FB8
0030
0070
0070
63E0
7FC0
3F00
ENDCHAR
STARTCHAR 003A
ENCODING 58
SWIDTH 303 0
DWIDTH 8 0
BBX 4 13 2 0
BITMAP
60
F0
F0
60
00
00
00
00
00
60
F0
F0
60
ENDCHAR
STARTCHAR 003B
ENCODING 59
SWIDTH 303 0
DWIDTH 8 0
BBX 4 16 2 -4
BITMAP
60
F0
F0
60
00
00
00
00
00
00
E0
F0
F0
30
20
C0
ENDCHAR
STARTCHAR 003C
ENCODING 60
SWIDTH 492 0
DWIDTH 13 0
BBX 11 13 1 1
BITMAP
0020
00E0
03E0
0F80
3E00
F800
E000
F800
3E00
0F80
03E0
00E0
0020
ENDCHAR
STARTCHAR 003D
ENCODING 61
SWIDTH 606 0
DWIDTH 16 0
BBX 12 7 2 4
BITMAP
FFF0
FFF0
0000
0000
0000
FFF0
FFF0
ENDCHAR
STARTCHAR 003E
ENCODING 62
SWIDTH 492 0
DWIDTH 13 0
BBX 11 13 1 1
BITMAP
8000
E000
F800
3E00
0F80
03E0
00E0
03E0
0F80
3E00
F800
E000
8000
ENDCHAR
STARTCHAR 003F
ENCODING 63
SWIDTH 492 0
DWIDTH 13 0
BBX 12 19 1 0
BITMAP
1F00
3FC0
79E0
E0E0
E060
C070
E060
00E0
01C0
0780
0700
0E00
0E00
0C00
0000
0000
0E00
0E00
0E00
ENDCHAR
STARTCHAR 0040
ENCODING 64
SWIDTH 833 0
DWIDTH 22 0
BBX 20 20 1 -1
BITMAP
01FC00
07FF00
0E0380
1C01C0
3800E0
70F660
61FE70
638E30
E30E30
C60630
C60430
C60C70
E70C60
671CE0
63FFC0
71E300
380000
1E0380
07FF00
01FC00
ENDCHAR
STARTCHAR 0041
ENCODING 65
SWIDTH 682 0
DWIDTH 18 0
BBX 18 19 0 0
BITMAP
01E000
01E000
01F000
03F000
033000
033800
071800
061C00
0E1C00
0E0C00
0C0E00
1FFE00
1FFF00
380700
380300
300380
700380
7001C0
E001C0
ENDCHAR
STARTCHAR 0042
ENCODING 66
SWIDTH 606 0
DWIDTH 16 0
BBX 13 19 2 0
BITMAP
FF80
FFE0
E0F0
E070
E070
E070
E070
E0E0
FFC0
FFE0
E0F0
E070
E038
E038
E038
E070
E0F0
FFE0
FFC0
ENDCHAR
STARTCHAR 0043
ENCODING 67
SWIDTH 757 0
DWIDTH 20 0
BBX 18 19 1 0
BITMAP
01F800
0FFE00
1FBF00
3C0780
380380
7001C0
600100
E00000
E00000
E00000
E00000
E00000
600100
7001C0
780380
3C0780
1FBF00
0FFE00
03F800
ENDCHAR
STARTCHAR 0044
ENCODING 68
SWIDTH 720 0
DWIDTH 19 0
BBX 16 19 2 0
BITMAP
FFC0
FFF0
E0F8
E01C
E00E
E00E
E007
E007
E007
E007
E007
E007
E006
E00E
E00E
E01C
E0F8
FFF0
FFC0
ENDCHAR
STARTCHAR 0045
ENCODING 69
SWIDTH 568 0
DWIDTH 15 0
BBX 12 19 2 0
BITMAP
FFF0
FFF0
E000
E000
E000
E000
E000
E000
E000
FFE0
FFE0
E000
E000
E000
E000
E000
E000
FFF0
FFF0
ENDCHAR
STARTCHAR 0046
ENCODING 70
SWIDTH 568 0
DWIDTH 15 0
BBX 12 19 2 0
BITMAP
FFF0
FFF0
E000
E000
E000
E000
E000
E000
E000
FFE0
FFE0
E000
E000
E000
E000
E000
E000
E000
E000
ENDCHAR
STARTCHAR 0047
ENCODING 71
SWIDTH 757 0
DWIDTH 20 0
BBX 18 19 1 0
BITMAP
01F800
0FFE00
1FBF00
3C0780
380380
7001C0
600000
E00000
E00000
E00000
E07FC0
E07FC0
6001C0
7001C0
7803C0
3C07C0
1FBFC0
0FFDC0
03F1C0
ENDCHAR
STARTCHAR 0048
ENCODING 72
SWIDTH 720 0
DWIDTH 19 0
BBX 15 19 2 0
BITMAP
E006
E006
E006
E006
E006
E006
E006
E006
FFFE
FFFE
E006
E006
E006
E006
E006
E006
E006
E006
E006
ENDCHAR
STARTCHAR 0049
ENCODING 73
SWIDTH 265 0
DWIDTH 7 0
BBX 3 19 2 0
BITMAP
E0
E0
E0
E0
E0
E0
E0
E0
E0
E0
E0
E0
E0
E0
E0
E0
E0
E0
E0
ENDCHAR
STARTCHAR 004A
ENCODING 74
SWIDTH 530 0
DWIDTH 14 0
BBX 11 19 1 0
BITMAP
00E0
00E0
00E0
00E0
00E0
00E0
00E0
00E0
00E0
00E0
00E0
40E0
C0E0
C0E0
C0E0
E0E0
FBC0
7F80
1F00
ENDCHAR
STARTCHAR 004B
ENCODING 75
SWIDTH 682 0
DWIDTH 18 0
BBX 15 19 2 0
BITMAP
E01E
E03C
E078
E070
E0E0
E1C0
E380
E700
EE00
FF00
FF80
FBC0
F1C0
E0E0
E070
E078
E038
E01C
E00E
ENDCHAR
STARTCHAR 004C
ENCODING 76
SWIDTH 530 0
DWIDTH 14 0
BBX 12 19 2 0
BITMAP
E000
E000
E000
E000
E000
E000
E000
E000
E000
E000
E000
E000
E000
E000
E000
E000
E000
FFF0
FFF0
ENDCHAR
STARTCHAR 004D
ENCODING 77
SWIDTH 947 0
DWIDTH 25 0
BBX 21 19 2 0
BITMAP
F00078
F800F8
F800F8
F800F8
FC01F8
FC01B8
EE03B8
EE03B8
E70738
E70738
E30638
E38E38
E38C38
E1DC38
E1DC38
E0F838
E0F838
E07038
E07038
ENDCHAR
STARTCHAR 004E
ENCODING 78
SWIDTH 757 0
DWIDTH 20 0
BBX 16 19 2 0
BITMAP
F007
F807
F807
FC07
EE07
EE07
E707
E387
E387
E1C7
E1E7
E0E7
E077
E077
E03F
E01F
E01F
E00F
E007
ENDCHAR
STARTCHAR 004F
ENCODING 79
SWIDTH 795 0
DWIDTH 21 0
BBX 19 19 1 0
BITMAP
01F800
0FFE00
1FBF00
3C0780
3801C0
7001C0
6000E0
E000E0
E000E0
E000E0
E000E0
E000E0
6000E0
7001C0
7801C0
3C0780
1FBF00
0FFE00
01F800
ENDCHAR
STARTCHAR 0050
ENCODING 80
SWIDTH 606 0
DWIDTH 16 0
BBX 13 19 2 0
BITMAP
FFC0
FFE0
E0F0
E038
E038
E038
E038
E038
E070
FFF0
FFC0
E000
E000
E000
E000
E000
E000
E000
E000
ENDCHAR
STARTCHAR 0051
ENCODING 81
SWIDTH 795 0
DWIDTH 21 0
BBX 19 20 1 -1
BITMAP
01F800
0FFE00
1FBF00
3C0780
3801C0
7001C0
6000E0
E000E0
E000E0
E000E0
E000E0
E010E0
6038E0
701DC0
780FC0
3C0780
1F9F80
0FFFC0
01F9C0
000080
ENDCHAR
STARTCHAR 0052
ENCODING 82
SWIDTH 606 0
DWIDTH 16 0
BBX 13 19 2 0
BITMAP
FFC0
FFE0
E0F0
E038
E038
E038
E038
E038
E070
FFF0
FFC0
E380
E380
E1C0
E0E0
E0E0
E070
E070
E038
ENDCHAR
STARTCHAR 0053
ENCODING 83
SWIDTH 606 0
DWIDTH 16 0
BBX 13 19 1 0
BITMAP
0FC0
1FF0
3CF0
7038
7018
6000
7000
7800
3F80
1FE0
03F0
0078
0038
E018
E018
7038
7CF0
3FF0
0FC0
ENDCHAR
STARTCHAR 0054
ENCODING 84
SWIDTH 606 0
DWIDTH 16 0
BBX 15 19 0 0
BITMAP
FFFE
FFFE
0180
0180
0180
0180
0180
0180
0180
0180
0180
0180
0180
0180
0180
0180
0180
0180
0180
ENDCHAR
STARTCHAR 0055
ENCODING 85
SWIDTH 682 0
DWIDTH 18 0
BBX 14 19 2 0
BITMAP
E01C
E01C
E01C
E01C
E01C
E01C
E01C
E01C
E01C
E01C
E01C
E01C
E01C
E01C
E018
7038
7CF0
3FE0
0FC0
ENDCHAR
STARTCHAR 0056
ENCODING 86
SWIDTH 644 0
DWIDTH 17 0
BBX 17 19 0 0
BITMAP
E00380
700380
700700
300700
380600
380E00
180E00
1C0C00
1C1C00
0C1800
0E1800
063800
073000
077000
037000
03E000
03E000
01C000
01C000
ENDCHAR
STARTCHAR 0057
ENCODING 87
SWIDTH 1023 0
DWIDTH 27 0
BBX 25 19 1 0
BITMAP
C01C0380
C03C0380
E03C0300
E03E0700
607E0700
70760700
70670600
30670E00
30E30E00
38C38C00
38C38C00
19C19C00
1D81DC00
1D81D800
1F80D800
0F00F800
0F00F000
0F007000
07007000
ENDCHAR
STARTCHAR 0058
ENCODING 88
SWIDTH 606 0
DWIDTH 16 0
BBX 15 19 1 0
BITMAP
E00E
E01C
7038
3838
3870
1CE0
0EE0
0FC0
0780
0380
0780
0FC0
0EE0
1CE0
3870
3838
7038
E01C
E00E
ENDCHAR
STARTCHAR 0059
ENCODING 89
SWIDTH 606 0
DWIDTH 16 0
BBX 15 19 1 0
BITMAP
E00E
E01C
701C
7038
3830
1C70
1CE0
0EC0
0FC0
0780
0380
0300
0300
0300
0300
0300
0300
0300
0300
ENDCHAR
STARTCHAR 005A
ENCODING 90
SWIDTH 644 0
DWIDTH 17 0
BBX 15 19 1 0
BITMAP
FFFC
FFFC
001C
003C
0038
0070
00E0
01E0
03C0
0380
0700
0E00
1E00
1C00
3800
7000
E000
FFFE
FFFE
ENDCHAR
STARTCHAR 005B
ENCODING 91
SWIDTH 303 0
DWIDTH 8 0
BBX 5 25 2 -4
BITMAP
F8
F8
E0
E0
E0
E0
E0
E0
E0
E0
E0
E0
E0
E0
E0
E0
E0
E0
E0
E0
E0
E0
E0
F8
F8
ENDCHAR
STARTCHAR 005C
ENCODING 92
SWIDTH 416 0
DWIDTH 11 0
BBX 11 19 0 0
BITMAP
E000
6000
7000
3000
3800
1800
1C00
0C00
0C00
0E00
0600
0700
0300
0380
0180
01C0
00C0
00E0
0060
ENDCHAR
STARTCHAR 005D
ENCODING 93
SWIDTH 303 0
DWIDTH 8 0
BBX 5 25 0 -4
BITMAP
F8
F8
18
18
18
18
18
18
18
18
18
18
18
18
18
18
18
18
18
18
18
18
18
F8
F8
ENDCHAR
STARTCHAR 005E
ENCODING 94
SWIDTH 530 0
DWIDTH 14 0
BBX 12 10 1 9
BITMAP
0600
0F00
1F00
1F80
3980
39C0
70C0
70E0
E060
E070
ENDCHAR
STARTCHAR 005F
ENCODING 95
SWIDTH 530 0
DWIDTH 14 0
BBX 14 2 0 -2
BITMAP
FFFC
FFFC
ENDCHAR
STARTCHAR 0060
ENCODING 96
SWIDTH 265 0
DWIDTH 7 0
BBX 5 4 1 14
BITMAP
E0
70
30
18
ENDCHAR
STARTCHAR 0061
ENCODING 97
SWIDTH 530 0
DWIDTH 14 0
BBX 11 13 1 0
BITMAP
1F80
3FC0
71E0
60E0
2060
03E0
3FE0
7060
60E0
E0E0
71E0
7F60
3E60
ENDCHAR
STARTCHAR 0062
ENCODING 98
SWIDTH 606 0
DWIDTH 16 0
BBX 13 19 2 0
BITMAP
E000
E000
E000
E000
E000
E000
E780
FFE0
F8F0
F070
E030
E038
E038
E038
E030
E070
F0E0
FFE0
EF80
ENDCHAR
STARTCHAR 0063
ENCODING 99
SWIDTH 530 0
DWIDTH 14 0
BBX 12 13 1 0
BITMAP
0F80
3FE0
78E0
7070
E020
E000
E000
E000
E020
7070
78E0
3FE0
0F80
ENDCHAR
STARTCHAR 0064
ENCODING 100
SWIDTH 606 0
DWIDTH 16 0
BBX 13 19 1 0
BITMAP
0030
0030
0030
0030
0030
0030
0F30
3FF0
78F0
7070
E030
E030
E030
E030
E030
6070
70F0
3FF0
0F38
ENDCHAR
STARTCHAR 0065
ENCODING 101
SWIDTH 530 0
DWIDTH 14 0
BBX 12 13 1 0
BITMAP
0F80
3FC0
78E0
6070
E030
FFF0
FFF0
E000
E020
7070
78E0
3FE0
0F80
ENDCHAR
STARTCHAR 0066
ENCODING 102
SWIDTH 341 0
DWIDTH 9 0
BBX 8 19 1 0
BITMAP
0F
1F
38
38
30
30
FF
FF
30
30
30
30
30
30
30
30
30
30
30
ENDCHAR
STARTCHAR 0067
ENCODING 103
SWIDTH 568 0
DWIDTH 15 0
BBX 12 18 1 -5
BITMAP
0FB0
3FF0
78F0
7070
E030
E030
E030
E030
6070
78F0
3FF0
1F30
0030
E030
E070
78E0
3FE0
1F80
ENDCHAR
STARTCHAR 0068
ENCODING 104
SWIDTH 568 0
DWIDTH 15 0
BBX 11 19 2 0
BITMAP
E000
E000
E000
E000
E000
E000
EF80
FFC0
F1E0
E0E0
E0E0
E0E0
E0E0
E0E0
E0E0
E0E0
E0E0
E0E0
E0E0
ENDCHAR
STARTCHAR 0069
ENCODING 105
SWIDTH 265 0
DWIDTH 7 0
BBX 3 20 2 0
BITMAP
E0
E0
E0
C0
00
00
00
E0
E0
E0
E0
E0
E0
E0
E0
E0
E0
E0
E0
E0
ENDCHAR
STARTCHAR 006A
ENCODING 106
SWIDTH 265 0
DWIDTH 7 0
BBX 5 25 0 -5
BITMAP
38
38
38
30
00
00
00
38
38
38
38
38
38
38
38
38
38
38
38
38
38
38
70
F0
E0
ENDCHAR
STARTCHAR 006B
ENCODING 107
SWIDTH 530 0
DWIDTH 14 0
BBX 11 19 2 0
BITMAP
E000
E000
E000
E000
E000
E000
E0E0
E1C0
E380
E700
EE00
FC00
FE00
FF00
E700
E380
E1C0
E1C0
E0E0
ENDCHAR
STARTCHAR 006C
ENCODING 108
SWIDTH 265 0
DWIDTH 7 0
BBX 3 19 2 0
BITMAP
E0
E0
E0
E0
E0
E0
E0
E0
E0
E0
E0
E0
E0
E0
E0
E0
E0
E0
E0
ENDCHAR
STARTCHAR 006D
ENCODING 109
SWIDTH 871 0
DWIDTH 23 0
BBX 19 13 2 0
BITMAP
CF0F80
DFDFC0
F1F1C0
E0E0E0
E0E0E0
E0E0E0
E0E0E0
E0E0E0
E0E0E0
E0E0E0
E0E0E0
E0E0E0
E0E0E0
ENDCHAR
STARTCHAR 006E
ENCODING 110
SWIDTH 568 0
DWIDTH 15 0
BBX 11 13 2 0
BITMAP
EF80
FFC0
F1E0
E0E0
E0E0
E0E0
E0E0
E0E0
E0E0
E0E0
E0E0
E0E0
E0E0
ENDCHAR
STARTCHAR 006F
ENCODING 111
SWIDTH 568 0
DWIDTH 15 0
BBX 13 13 1 0
BITMAP
0F80
3FE0
78F0
7070
E038
E038
E038
E038
E038
7030
78F0
3FE0
0F80
ENDCHAR
STARTCHAR 0070
ENCODING 112
SWIDTH 606 0
DWIDTH 16 0
BBX 13 18 2 -5
BITMAP
E780
FFE0
F8F0
E070
E030
E038
E038
E038
E030
F070
F8E0
FFE0
EF80
E000
E000
E000
E000
E000
ENDCHAR
STARTCHAR 0071
ENCODING 113
SWIDTH 568 0
DWIDTH 15 0
BBX 12 18 1 -5
BITMAP
0F30
3FF0
78F0
7070
E030
E030
E030
E030
E030
7070
78F0
3FF0
0F30
0030
0030
0030
0030
0030
ENDCHAR
STARTCHAR 0072
ENCODING 114
SWIDTH 378 0
DWIDTH 10 0
BBX 7 13 2 0
BITMAP
EE
FE
FE
F0
E0
E0
E0
E0
E0
E0
E0
E0
E0
ENDCHAR
STARTCHAR 0073
ENCODING 115
SWIDTH 454 0
DWIDTH 12 0
BBX 10 13 1 0
BITMAP
1E00
7F80
7380
E180
E000
7C00
3F00
0F80
01C0
C1C0
F380
7F80
1E00
ENDCHAR
STARTCHAR 0074
ENCODING 116
SWIDTH 341 0
DWIDTH 9 0
BBX 7 17 1 0
BITMAP
30
30
30
30
FE
FE
30
30
30
30
30
30
30
38
38
3E
1E
ENDCHAR
STARTCHAR 0075
ENCODING 117
SWIDTH 568 0
DWIDTH 15 0
BBX 11 13 2 0
BITMAP
C0E0
C0E0
C0E0
C0E0
C0E0
C0E0
C0E0
C0E0
E0E0
E0E0
61E0
7FE0
3E60
ENDCHAR
STARTCHAR 0076
ENCODING 118
SWIDTH 492 0
DWIDTH 13 0
BBX 13 13 0 0
BITMAP
E038
7030
7070
3070
3860
38E0
18C0
1CC0
0DC0
0D80
0F80
0780
0700
ENDCHAR
STARTCHAR 0077
ENCODING 119
SWIDTH 795 0
DWIDTH 21 0
BBX 19 13 1 0
BITMAP
C0E060
E0E0E0
E1F0E0
E1B0C0
61B0C0
73B9C0
731980
331980
3F1F80
3E0F80
1E0F00
1E0F00
1C0700
ENDCHAR
STARTCHAR 0078
ENCODING 120
SWIDTH 492 0
DWIDTH 13 0
BBX 11 13 1 0
BITMAP
E0E0
E0C0
71C0
3B80
1B00
1F00
0E00
1F00
3B80
3B80
71C0
E0E0
E0E0
ENDCHAR
STARTCHAR 0079
ENCODING 121
SWIDTH 530 0
DWIDTH 14 0
BBX 13 18 0 -5
BITMAP
E018
7038
7030
3870
3860
1CE0
1CE0
0EC0
0FC0
0780
0780
0300
0700
0600
0E00
0C00
1C00
1C00
ENDCHAR
STARTCHAR 007A
ENCODING 122
SWIDTH 454 0
DWIDTH 12 0
BBX 10 13 1 0
BITMAP
FFC0
FFC0
01C0
0380
0700
0E00
0E00
1C00
3800
7000
E000
FFC0
FFC0
ENDCHAR
STARTCHAR 007B
ENCODING 123
SWIDTH 341 0
DWIDTH 9 0
BBX 8 25 1 -4
BITMAP
03
0F
0C
18
18
18
18
18
18
18
18
78
F0
F0
38
18
18
18
18
18
18
18
1C
0F
07
ENDCHAR
STARTCHAR 007C
ENCODING 124
SWIDTH 265 0
DWIDTH 7 0
BBX 3 25 2 -4
BITMAP
E0
E0
E0
E0
E0
E0
E0
E0
E0
E0
E0
E0
E0
E0
E0
E0
E0
E0
E0
E0
E0
E0
E0
E0
E0
ENDCHAR
STARTCHAR 007D
ENCODING 125
SWIDTH 341 0
DWIDTH 9 0
BBX 8 25 0 -4
BITMAP
E0
F0
38
18
18
18
18
18
18
18
1C
0E
07
0F
1C
18
18
18
18
18
18
18
38
F0
E0
ENDCHAR
STARTCHAR 007E
ENCODING 126
SWIDTH 568 0
DWIDTH 15 0
BBX 13 3 1 5
BITMAP
3F18
7FF8
C3E0
ENDCHAR
STARTCHAR 00A0
ENCODING 160
SWIDTH 265 0
DWIDTH 7 0
BBX 0 0 0 0
BITMAP
ENDCHAR
STARTCHAR 00A1
ENCODING 161
SWIDTH 265 0
DWIDTH 7 0
BBX 3 19 2 -6
BITMAP
E0
E0
E0
00
00
00
60
60
60
60
60
E0
E0
E0
E0
E0
E0
E0
E0
ENDCHAR
STARTCHAR 00A2
ENCODING 162
SWIDTH 530 0
DWIDTH 14 0
BBX 12 17 1 0
BITMAP
0600
0600
0700
1FC0
3EE0
7670
6600
E600
E600
E600
6620
7670
3FE0
1FC0
0700
0600
0600
ENDCHAR
STARTCHAR 00A3
ENCODING 163
SWIDTH 606 0
DWIDTH 16 0
BBX 13 17 2 0
BITMAP
0F80
3FC0
39E0
7060
7070
7000
7000
3000
FFC0
FFC0
1800
1800
3838
7038
E078
FFF0
FFE0
ENDCHAR
STARTCHAR 00A4
ENCODING 164
SWIDTH 568 0
DWIDTH 15 0
BBX 13 13 1 0
BITMAP
4010
E7B8
7FF0
38E0
3070
7030
6030
7030
3030
38E0
7FF0
EFB8
4010
ENDCHAR
STARTCHAR 00A5
ENCODING 165
SWIDTH 568 0
DWIDTH 15 0
BBX 13 17 1 0
BITMAP
E038
7038
7070
3870
38E0
1CC0
0FC0
7FF8
7FF8
0300
0300
7FF8
7FF8
0300
0300
0300
0300
ENDCHAR
STARTCHAR 00A6
ENCODING 166
SWIDTH 265 0
DWIDTH 7 0
BBX 3 25 2 -4
BITMAP
E0
E0
E0
E0
E0
E0
E0
E0
E0
E0
E0
00
00
00
E0
E0
E0
E0
E0
E0
E0
E0
E0
E0
E0
ENDCHAR
STARTCHAR 00A7
ENCODING 167
SWIDTH 568 0
DWIDTH 15 0
BBX 11 25 2 -6
BITMAP
1F00
3FC0
71C0
E0E0
E0E0
E000
7000
7800
3E00
3F80
63C0
E1E0
E0E0
70E0
78C0
3FC0
0F80
03C0
01E0
00E0
E0E0
E0E0
71C0
7F80
1F00
ENDCHAR
STARTCHAR 00A8
ENCODING 168
SWIDTH 378 0
DWIDTH 10 0
BBX 8 3 1 15
BITMAP
E7
E7
E7
ENDCHAR
STARTCHAR 00A9
ENCODING 169
SWIDTH 833 0
DWIDTH 22 0
BBX 19 19 1 0
BITMAP
01F800
07FE00
1E0700
380380
30F1C0
63F8E0
670C60
E60C60
C60060
C60060
C60060
E60460
670C60
63F8E0
30F0C0
380180
1E0700
07FE00
01F800
ENDCHAR
STARTCHAR 00AA
ENCODING 170
SWIDTH 416 0
DWIDTH 11 0
BBX 7 10 2 7
BITMAP
3C
7E
C6
06
7E
E6
C6
C6
FA
20
ENDCHAR
STARTCHAR 00AB
ENCODING 171
SWIDTH 454 0
DWIDTH 12 0
BBX 11 10 1 3
BITMAP
18E0
39C0
3180
6300
E700
E700
6300
3180
39C0
18E0
ENDCHAR
STARTCHAR 00AC
ENCODING 172
SWIDTH 568 0
DWIDTH 15 0
BBX 12 7 1 4
BITMAP
FFF0
FFF0
0030
0030
0030
0030
0030
ENDCHAR
STARTCHAR 00AD
ENCODING 173
SWIDTH 378 0
DWIDTH 10 0
BBX 7 2 1 7
BITMAP
FE
FE
ENDCHAR
STARTCHAR 00AE
ENCODING 174
SWIDTH 833 0
DWIDTH 22 0
BBX 19 19 1 0
BITMAP
01F800
07FE00
1E0700
380380
31F1C0
61F8E0
619C60
E18C60
C19C60
C1F860
C1F060
E1B060
61B860
6198E0
318CC0
380180
1E0700
07FE00
01F800
ENDCHAR
STARTCHAR 00AF
ENCODING 175
SWIDTH 341 0
DWIDTH 9 0
BBX 7 2 1 15
BITMAP
FE
FE
ENDCHAR
STARTCHAR 00B0
ENCODING 176
SWIDTH 378 0
DWIDTH 10 0
BBX 8 8 1 9
BITMAP
3C
7E
E7
C3
C3
E7
7E
3C
ENDCHAR
STARTCHAR 00B1
ENCODING 177
SWIDTH 568 0
DWIDTH 15 0
BBX 11 13 2 1
BITMAP
0E00
0E00
0E00
0E00
FFE0
FFE0
0E00
0E00
0E00
0E00
0000
FFE0
FFE0
ENDCHAR
STARTCHAR 00B2
ENCODING 178
SWIDTH 378 0
DWIDTH 10 0
BBX 7 10 2 9
BITMAP
78
FC
CE
C6
0C
3C
70
E0
FE
FE
ENDCHAR
STARTCHAR 00B3
ENCODING 179
SWIDTH 416 0
DWIDTH 11 0
BBX 7 10 2 9
BITMAP
FE
FE
0C
38
3C
0E
06
C6
FE
7C
ENDCHAR
STARTCHAR 00B4
ENCODING 180
SWIDTH 265 0
DWIDTH 7 0
BBX 5 4 1 14
BITMAP
38
70
60
C0
ENDCHAR
STARTCHAR 00B5
ENCODING 181
SWIDTH 568 0
DWIDTH 15 0
BBX 11 18 2 -5
BITMAP
E0E0
E0E0
E0E0
E0E0
E0E0
E0E0
E0E0
E0E0
E0E0
E0E0
F0E0
FF60
FE60
E000
E000
E000
E000
E000
ENDCHAR
STARTCHAR 00B6
ENCODING 182
SWIDTH 644 0
DWIDTH 17 0
BBX 15 24 1 -5
BITMAP
1FFE
3FFE
7F30
FF30
FF30
FF30
FF30
FF30
7F30
3F30
0730
0730
0730
0730
0730
0730
0730
0730
0730
0730
0730
0730
0730
0730
ENDCHAR
STARTCHAR 00B7
ENCODING 183
SWIDTH 265 0
DWIDTH 7 0
BBX 4 3 2 6
BITMAP
E0
F0
E0
ENDCHAR
STARTCHAR 00B8
ENCODING 184
SWIDTH 303 0
DWIDTH 8 0
BBX 6 6 1 -6
BITMAP
30
78
1C
0C
FC
78
ENDCHAR
STARTCHAR 00B9
ENCODING 185
SWIDTH 303 0
DWIDTH 8 0
BBX 5 10 1 9
BITMAP
18
38
F8
18
18
18
18
18
18
18
ENDCHAR
STARTCHAR 00BA
ENCODING 186
SWIDTH 492 0
DWIDTH 13 0
BBX 9 9 2 8
BITMAP
3E00
7F00
E380
C180
C180
C180
E380
7F00
3E00
ENDCHAR
STARTCHAR 00BB
ENCODING 187
SWIDTH 454 0
DWIDTH 12 0
BBX 10 10 1 3
BITMAP
C600
6300
7380
31C0
18C0
18C0
31C0
7380
6300
C600
ENDCHAR
STARTCHAR 00BC
ENCODING 188
SWIDTH 795 0
DWIDTH 21 0
BBX 18 17 1 0
BITMAP
180600
780E00
F80C00
181800
183800
187000
186000
18C380
19C780
198F80
030D80
071980
0E3180
0C3FC0
183FC0
380180
700180
ENDCHAR
STARTCHAR 00BD
ENCODING 189
SWIDTH 795 0
DWIDTH 21 0
BBX 18 17 1 0
BITMAP
180600
780E00
F80C00
181800
183800
187000
186000
18C300
19CFC0
199CC0
0318C0
0600C0
0E0380
0C0700
180C00
381FC0
701FC0
ENDCHAR
STARTCHAR 00BE
ENCODING 190
SWIDTH 833 0
DWIDTH 22 0
BBX 19 17 2 0
BITMAP
FE0380
FE0300
1C0600
380E00
3C1C00
061800
063000
C67180
FC6380
38C780
01CF80
038D80
031980
063FE0
0E3FE0
0C0180
180180
ENDCHAR
STARTCHAR 00BF
ENCODING 191
SWIDTH 492 0
DWIDTH 13 0
BBX 11 19 1 -6
BITMAP
0600
0E00
0E00
0000
0000
0600
0600
0E00
1C00
3C00
7800
E000
C0E0
C060
C0E0
E0E0
F3C0
7F80
1F00
ENDCHAR
STARTCHAR 00C0
ENCODING 192
SWIDTH 682 0
DWIDTH 18 0
BBX 18 23 0 0
BITMAP
070000
038000
01C000
000000
01E000
01E000
01F000
03F000
033000
033800
071800
061C00
0E1C00
0E0C00
0C0E00
1FFE00
1FFF00
380700
380300
300380
700380
7001C0
E001C0
ENDCHAR
STARTCHAR 00C1
ENCODING 193
SWIDTH 682 0
DWIDTH 18 0
BBX 18 23 0 0
BITMAP
003800
007000
00E000
000000
01E000
01E000
01F000
03F000
033000
033800
071800
061C00
0E1C00
0E0C00
0C0E00
1FFE00
1FFF00
380700
380300
300380
700380
7001C0
E001C0
ENDCHAR
STARTCHAR 00C2
ENCODING 194
SWIDTH 682 0
DWIDTH 18 0
BBX 18 23 0 0
BITMAP
01E000
03F000
071800
000000
01E000
01E000
01F000
03F000
033000
033800
071800
061C00
0E1C00
0E0C00
0C0E00
1FFE00
1FFF00
380700
380300
300380
700380
7001C0
E001C0
ENDCHAR
STARTCHAR 00C3
ENCODING 195
SWIDTH 682 0
DWIDTH 18 0
BBX 18 24 0 0
BITMAP
038000
07D800
07F800
067000
000000
01E000
01E000
01F000
03F000
033000
033800
071800
061C00
0E1C00
0E0C00
0C0E00
1FFE00
1FFF00
380700
380300
300380
700380
7001C0
E001C0
ENDCHAR
STARTCHAR 00C4
ENCODING 196
SWIDTH 682 0
DWIDTH 18 0
BBX 18 23 0 0
BITMAP
0C0C00
0E1E00
0C0C00
000000
01E000
01E000
01F000
03F000
033000
033800
071800
061C00
0E1C00
0E0C00
0C0E00
1FFE00
1FFF00
380700
380300
300380
700380
7001C0
E001C0
ENDCHAR
STARTCHAR 00C5
ENCODING 197
SWIDTH 682 0
DWIDTH 18 0
BBX 18 24 0 0
BITMAP
00E000
01F000
033000
033000
033000
01F000
01E000
01F000
03F000
033000
033800
071800
061C00
0E1C00
0E0C00
0C0E00
1FFE00
1FFF00
380700
380300
300380
700380
7001C0
E001C0
ENDCHAR
STARTCHAR 00C6
ENCODING 198
SWIDTH 1023 0
DWIDTH 27 0
BBX 26 19 0 0
BITMAP
000FFFC0
000FFFC0
001F8000
003B8000
003B8000
00738000
00E38000
00E38000
01C38000
03C3FF80
0383FF80
07038000
0FFF8000
0FFF8000
1C038000
3C038000
38038000
7003FFC0
F003FFC0
ENDCHAR
STARTCHAR 00C7
ENCODING 199
SWIDTH 757 0
DWIDTH 20 0
BBX 18 25 1 -6
BITMAP
01F800
0FFE00
1FBF00
3C0780
380380
7001C0
600100
E00000
E00000
E00000
E00000
E00000
600100
7001C0
780380
3C0780
1F9F00
0FFE00
03F800
00C000
00F000
003800
011800
01F000
004000
ENDCHAR
STARTCHAR 00C8
ENCODING 200
SWIDTH 568 0
DWIDTH 15 0
BBX 12 23 2 0
BITMAP
1C00
0E00
0700
0000
FFF0
FFF0
E000
E000
E000
E000
E000
E000
E000
FFE0
FFE0
E000
E000
E000
E000
E000
E000
FFF0
FFF0
ENDCHAR
STARTCHAR 00C9
ENCODING 201
SWIDTH 568 0
DWIDTH 15 0
BBX 12 23 2 0
BITMAP
03C0
0300
0600
0000
FFF0
FFF0
E000
E000
E000
E000
E000
E000
E000
FFE0
FFE0
E000
E000
E000
E000
E000
E000
FFF0
FFF0
ENDCHAR
STARTCHAR 00CA
ENCODING 202
SWIDTH 568 0
DWIDTH 15 0
BBX 12 23 2 0
BITMAP
0F00
1F80
38C0
0000
FFF0
FFF0
E000
E000
E000
E000
E000
E000
E000
FFE0
FFE0
E000
E000
E000
E000
E000
E000
FFF0
FFF0
ENDCHAR
STARTCHAR 00CB
ENCODING 203
SWIDTH 568 0
DWIDTH 15 0
BBX 12 23 2 0
BITMAP
30C0
38E0
30C0
0000
FFF0
FFF0
E000
E000
E000
E000
E000
E000
E000
FFE0
FFE0
E000
E000
E000
E000
E000
E000
FFF0
FFF0
ENDCHAR
STARTCHAR 00CC
ENCODING 204
SWIDTH 265 0
DWIDTH 7 0
BBX 6 23 -1 0
BITMAP
F0
38
18
00
1C
1C
1C
1C
1C
1C
1C
1C
1C
1C
1C
1C
1C
1C
1C
1C
1C
1C
1C
ENDCHAR
STARTCHAR 00CD
ENCODING 205
SWIDTH 265 0
DWIDTH 7 0
BBX 6 23 2 0
BITMAP
1C
38
70
00
E0
E0
E0
E0
E0
E0
E0
E0
E0
E0
E0
E0
E0
E0
E0
E0
E0
E0
E0
ENDCHAR
STARTCHAR 00CE
ENCODING 206
SWIDTH 265 0
DWIDTH 7 0
BBX 8 23 0 0
BITMAP
3C
7E
C7
00
38
38
38
38
38
38
38
38
38
38
38
38
38
38
38
38
38
38
38
ENDCHAR
STARTCHAR 00CF
ENCODING 207
SWIDTH 265 0
DWIDTH 7 0
BBX 7 23 0 0
BITMAP
66
EE
46
00
38
38
38
38
38
38
38
38
38
38
38
38
38
38
38
38
38
38
38
ENDCHAR
STARTCHAR 00D0
ENCODING 208
SWIDTH 720 0
DWIDTH 19 0
BBX 18 19 0 0
BITMAP
3FF000
3FFC00
383E00
380700
380380
380380
3801C0
3801C0
FF01C0
FF01C0
3801C0
3801C0
3801C0
380380
380380
380700
383E00
3FFC00
3FF000
ENDCHAR
STARTCHAR 00D1
ENCODING 209
SWIDTH 757 0
DWIDTH 20 0
BBX 16 24 2 0
BITMAP
0700
0FB0
0FF0
0CE0
0000
F007
F807
F807
FC07
EE07
EE07
E707
E387
E387
E1C7
E1E7
E0E7
E077
E077
E03F
E01F
E01F
E00F
E007
ENDCHAR
STARTCHAR 00D2
ENCODING 210
SWIDTH 795 0
DWIDTH 21 0
BBX 19 23 1 0
BITMAP
078000
01C000
00E000
000000
01F800
0FFE00
1FBF00
3C0780
3801C0
7001C0
6000E0
E000E0
E000E0
E000E0
E000E0
E000E0
6000E0
7001C0
7801C0
3C0780
1FBF00
0FFE00
01F800
ENDCHAR
STARTCHAR 00D3
ENCODING 211
SWIDTH 795 0
DWIDTH 21 0
BBX 19 23 1 0
BITMAP
003C00
007000
006000
000000
01F800
0FFE00
1FBF00
3C0780
3801C0
7001C0
6000E0
E000E0
E000E0
E000E0
E000E0
E000E0
6000E0
7001C0
7801C0
3C0780
1FBF00
0FFE00
01F800
ENDCHAR
STARTCHAR 00D4
ENCODING 212
SWIDTH 795 0
DWIDTH 21 0
BBX 19 23 1 0
BITMAP
01F000
03B800
071C00
000000
01F800
0FFE00
1FBF00
3C0780
3801C0
7001C0
6000E0
E000E0
E000E0
E000E0
E000E0
E000E0
6000E0
7001C0
7801C0
3C0780
1FBF00
0FFE00
01F800
ENDCHAR
STARTCHAR 00D5
ENCODING 213
SWIDTH 795 0
DWIDTH 21 0
BBX 19 23 1 0
BITMAP
03CC00
03FC00
067800
000000
01F800
0FFE00
1FBF00
3C0780
3801C0
7001C0
6000E0
E000E0
E000E0
E000E0
E000E0
E000E0
6000E0
7001C0
7801C0
3C0780
1FBF00
0FFE00
01F800
ENDCHAR
STARTCHAR 00D6
ENCODING 214
SWIDTH 795 0
DWIDTH 21 0
BBX 19 23 1 0
BITMAP
0E0600
0E0E00
0E0600
000000
01F800
0FFE00
1FBF00
3C0780
3801C0
7001C0
6000E0
E000E0
E000E0
E000E0
E000E0
E000E0
6000E0
7001C0
7801C0
3C0780
1FBF00
0FFE00
01F800
ENDCHAR
STARTCHAR 00D7
ENCODING 215
SWIDTH 530 0
DWIDTH 14 0
BBX 12 13 1 1
BITMAP
4020
E070
70E0
39C0
1F80
0F00
0E00
0F00
1F80
39C0
70E0
E070
4020
ENDCHAR
STARTCHAR 00D8
ENCODING 216
SWIDTH 795 0
DWIDTH 21 0
BBX 19 21 1 -1
BITMAP
000080
01F9C0
0FFF80
1FBF80
3C0780
380FC0
701DC0
6018E0
E038E0
E070E0
E0E0E0
E1C0E0
E180E0
6380E0
7701C0
3E01C0
3C0780
1FBF00
3FFE00
71F800
200000
ENDCHAR
STARTCHAR 00D9
ENCODING 217
SWIDTH 682 0
DWIDTH 18 0
BBX 14 23 2 0
BITMAP
1C00
0E00
0300
0000
E01C
E01C
E01C
E01C
E01C
E01C
E01C
E01C
E01C
E01C
E01C
E01C
E01C
E01C
E018
7038
7CF0
3FE0
0FC0
ENDCHAR
STARTCHAR 00DA
ENCODING 218
SWIDTH 682 0
DWIDTH 18 0
BBX 14 23 2 0
BITMAP
01C0
0380
0700
0000
E01C
E01C
E01C
E01C
E01C
E01C
E01C
E01C
E01C
E01C
E01C
E01C
E01C
E01C
E018
7038
7CF0
3FE0
0FC0
ENDCHAR
STARTCHAR 00DB
ENCODING 219
SWIDTH 682 0
DWIDTH 18 0
BBX 14 23 2 0
BITMAP
0780
0FC0
18E0
0000
E01C
E01C
E01C
E01C
E01C
E01C
E01C
E01C
E01C
E01C
E01C
E01C
E01C
E01C
E018
7038
7CF0
3FE0
0FC0
ENDCHAR
STARTCHAR 00DC
ENCODING 220
SWIDTH 682 0
DWIDTH 18 0
BBX 14 23 2 0
BITMAP
1860
38E0
1860
0000
E01C
E01C
E01C
E01C
E01C
E01C
E01C
E01C
E01C
E01C
E01C
E01C
E01C
E01C
E018
7038
7CF0
3FE0
0FC0
ENDCHAR
STARTCHAR 00DD
ENCODING 221
SWIDTH 606 0
DWIDTH 16 0
BBX 15 23 1 0
BITMAP
01E0
01C0
0300
0000
E00E
E01C
701C
7038
3830
1C70
1CE0
0EC0
0FC0
0780
0380
0300
0300
0300
0300
0300
0300
0300
0300
ENDCHAR
STARTCHAR 00DE
ENCODING 222
SWIDTH 606 0
DWIDTH 16 0
BBX 13 19 2 0
BITMAP
E000
E000
E000
E000
FFC0
FFF0
E070
E038
E038
E038
E038
E038
E0F0
FFE0
FFC0
E000
E000
E000
E000
ENDCHAR
STARTCHAR 00DF
ENCODING 223
SWIDTH 568 0
DWIDTH 15 0
BBX 12 19 2 0
BITMAP
0F80
3FC0
79E0
6060
E060
E060
E0E0
E3C0
E780
E700
E700
E7C0
E3E0
E0F0
E030
EC30
EE70
EFE0
E3C0
ENDCHAR
STARTCHAR 00E0
ENCODING 224
SWIDTH 530 0
DWIDTH 14 0
BBX 11 18 1 0
BITMAP
3800
1C00
0C00
0600
0000
1F80
3FC0
71E0
60E0
2060
03E0
3FE0
7060
60E0
E0E0
71E0
7F60
3E60
ENDCHAR
STARTCHAR 00E1
ENCODING 225
SWIDTH 530 0
DWIDTH 14 0
BBX 11 18 1 0
BITMAP
01C0
0380
0300
0600
0000
1F80
3FC0
71E0
60E0
2060
03E0
3FE0
7060
60E0
E0E0
71E0
7F60
3E60
ENDCHAR
STARTCHAR 00E2
ENCODING 226
SWIDTH 530 0
DWIDTH 14 0
BBX 11 18 1 0
BITMAP
0F00
0F00
1980
39C0
0000
1F80
3FC0
71E0
60E0
2060
03E0
3FE0
7060
60E0
E0E0
71E0
7F60
3E60
ENDCHAR
STARTCHAR 00E3
ENCODING 227
SWIDTH 530 0
DWIDTH 14 0
BBX 11 18 1 0
BITMAP
1CC0
3FC0
3380
0000
0000
1F80
3FC0
71E0
60E0
2060
03E0
3FE0
7060
60E0
E0E0
71E0
7F60
3E60
ENDCHAR
STARTCHAR 00E4
ENCODING 228
SWIDTH 530 0
DWIDTH 14 0
BBX 11 18 1 0
BITMAP
39C0
39C0
3980
0000
0000
1F80
3FC0
71E0
60E0
2060
03E0
3FE0
7060
60E0
E0E0
71E0
7F60
3E60
ENDCHAR
STARTCHAR 00E5
ENCODING 229
SWIDTH 530 0
DWIDTH 14 0
BBX 11 20 1 0
BITMAP
0400
0F00
1980
1980
1F00
0F00
0000
1F80
3FC0
71E0
60E0
2060
03E0
3FE0
7060
60E0
E0E0
71E0
7F60
3E60
ENDCHAR
STARTCHAR 00E6
ENCODING 230
SWIDTH 871 0
DWIDTH 23 0
BBX 21 13 1 0
BITMAP
0F07C0
3FDFE0
70F870
607038
007038
0FFFF8
3FFFF8
706000
E07000
E0F038
71FC70
7F9FE0
3E07C0
ENDCHAR
STARTCHAR 00E7
ENCODING 231
SWIDTH 530 0
DWIDTH 14 0
BBX 12 19 1 -6
BITMAP
0F80
3FE0
78E0
7070
E020
E000
E000
E000
E000
7030
78F0
3FE0
0F80
0600
0780
0180
0880
0D80
0F00
ENDCHAR
STARTCHAR 00E8
ENCODING 232
SWIDTH 530 0
DWIDTH 14 0
BBX 12 18 1 0
BITMAP
1C00
0C00
0E00
0600
0000
0F80
3FC0
78E0
6070
E030
FFF0
FFF0
E000
E020
7070
78E0
3FE0
0F80
ENDCHAR
STARTCHAR 00E9
ENCODING 233
SWIDTH 530 0
DWIDTH 14 0
BBX 12 18 1 0
BITMAP
01C0
0180
0300
0700
0000
0F80
3FC0
78E0
6070
E030
FFF0
FFF0
E000
E020
7070
78E0
3FE0
0F80
ENDCHAR
STARTCHAR 00EA
ENCODING 234
SWIDTH 530 0
DWIDTH 14 0
BBX 12 18 1 0
BITMAP
0700
0F80
1DC0
18C0
0000
0F80
3FC0
78E0
6070
E030
FFF0
FFF0
E000
E020
7070
78E0
3FE0
0F80
ENDCHAR
STARTCHAR 00EB
ENCODING 235
SWIDTH 530 0
DWIDTH 14 0
BBX 12 18 1 0
BITMAP
18C0
39C0
18C0
0000
0000
0F80
3FC0
78E0
6070
E030
FFF0
FFF0
E000
E020
7070
78E0
3FE0
0F80
ENDCHAR
STARTCHAR 00EC
ENCODING 236
SWIDTH 265 0
DWIDTH 7 0
BBX 5 18 0 0
BITMAP
E0
60
30
00
00
38
38
38
38
38
38
38
38
38
38
38
38
38
ENDCHAR
STARTCHAR 00ED
ENCODING 237
SWIDTH 265 0
DWIDTH 7 0
BBX 5 18 2 0
BITMAP
38
70
60
00
00
E0
E0
E0
E0
E0
E0
E0
E0
E0
E0
E0
E0
E0
ENDCHAR
STARTCHAR 00EE
ENCODING 238
SWIDTH 265 0
DWIDTH 7 0
BBX 7 18 0 0
BITMAP
78
6C
C6
00
00
38
38
38
38
38
38
38
38
38
38
38
38
38
ENDCHAR
STARTCHAR 00EF
ENCODING 239
SWIDTH 265 0
DWIDTH 7 0
BBX 7 18 0 0
BITMAP
EC
EE
4C
00
00
38
38
38
38
38
38
38
38
38
38
38
38
38
ENDCHAR
STARTCHAR 00F0
ENCODING 240
SWIDTH 568 0
DWIDTH 15 0
BBX 13 19 1 0
BITMAP
1800
1E60
0FE0
07C0
1FE0
18E0
0070
0FB0
3FF8
7878
6038
E038
E038
E038
E038
7030
78F0
3FE0
0F80
ENDCHAR
STARTCHAR 00F1
ENCODING 241
SWIDTH 568 0
DWIDTH 15 0
BBX 11 18 2 0
BITMAP
1CC0
3FC0
3380
0000
0000
EF80
FFC0
F1E0
E0E0
E0E0
E0E0
E0E0
E0E0
E0E0
E0E0
E0E0
E0E0
E0E0
ENDCHAR
STARTCHAR 00F2
ENCODING 242
SWIDTH 568 0
DWIDTH 15 0
BBX 13 18 1 0
BITMAP
1C00
0C00
0E00
0600
0000
0F80
3FE0
78F0
7070
E038
E038
E038
E038
E038
7030
78F0
3FE0
0F80
ENDCHAR
STARTCHAR 00F3
ENCODING 243
SWIDTH 568 0
DWIDTH 15 0
BBX 13 18 1 0
BITMAP
01C0
0180
0300
0700
0000
0F80
3FE0
78F0
7070
E038
E038
E038
E038
E038
7030
78F0
3FE0
0F80
ENDCHAR
STARTCHAR 00F4
ENCODING 244
SWIDTH 568 0
DWIDTH 15 0
BBX 13 18 1 0
BITMAP
0700
0F80
1DC0
18C0
0000
0F80
3FE0
78F0
7070
E038
E038
E038
E038
E038
7030
78F0
3FE0
0F80
ENDCHAR
STARTCHAR 00F5
ENCODING 245
SWIDTH 568 0
DWIDTH 15 0
BBX 13 18 1 0
BITMAP
1E60
1FE0
33C0
0000
0000
0F80
3FE0
78F0
7070
E038
E038
E038
E038
E038
7030
78F0
3FE0
0F80
ENDCHAR
STARTCHAR 00F6
ENCODING 246
SWIDTH 568 0
DWIDTH 15 0
BBX 13 18 1 0
BITMAP
18C0
1DE0
18C0
0000
0000
0F80
3FE0
78F0
7070
E038
E038
E038
E038
E038
7030
78F0
3FE0
0F80
ENDCHAR
STARTCHAR 00F7
ENCODING 247
SWIDTH 568 0
DWIDTH 15 0
BBX 13 13 1 1
BITMAP
0700
0700
0700
0000
0000
FFF8
FFF8
0000
0000
0200
0700
0700
0700
ENDCHAR
STARTCHAR 00F8
ENCODING 248
SWIDTH 568 0
DWIDTH 15 0
BBX 13 15 1 -1
BITMAP
0010
0FB8
3FF0
78F0
70F0
E1B8
E3B8
E738
EE38
EC38
7830
78F0
7FE0
EF80
4000
ENDCHAR
STARTCHAR 00F9
ENCODING 249
SWIDTH 568 0
DWIDTH 15 0
BBX 11 18 2 0
BITMAP
3800
1C00
0C00
0000
0000
C0E0
C0E0
C0E0
C0E0
C0E0
C0E0
C0E0
C0E0
E0E0
E0E0
61E0
7FE0
3E60
ENDCHAR
STARTCHAR 00FA
ENCODING 250
SWIDTH 568 0
DWIDTH 15 0
BBX 11 18 2 0
BITMAP
0380
0700
0C00
0000
0000
C0E0
C0E0
C0E0
C0E0
C0E0
C0E0
C0E0
C0E0
E0E0
E0E0
61E0
7FE0
3E60
ENDCHAR
STARTCHAR 00FB
ENCODING 251
SWIDTH 568 0
DWIDTH 15 0
BBX 11 18 2 0
BITMAP
0E00
1B00
3180
0000
0000
C0E0
C0E0
C0E0
C0E0
C0E0
C0E0
C0E0
C0E0
E0E0
E0E0
61E0
7FE0
3E60
ENDCHAR
STARTCHAR 00FC
ENCODING 252
SWIDTH 568 0
DWIDTH 15 0
BBX 11 18 2 0
BITMAP
3180
7380
3180
0000
0000
C0E0
C0E0
C0E0
C0E0
C0E0
C0E0
C0E0
C0E0
E0E0
E0E0
61E0
7FE0
3E60
ENDCHAR
STARTCHAR 00FD
ENCODING 253
SWIDTH 530 0
DWIDTH 14 0
BBX 13 23 0 -5
BITMAP
01C0
0180
0300
0000
0000
E018
7038
7030
3870
3860
1CE0
1CE0
0EC0
0FC0
0780
0780
0300
0700
0600
0E00
0C00
1C00
1C00
ENDCHAR
STARTCHAR 00FE
ENCODING 254
SWIDTH 606 0
DWIDTH 16 0
BBX 13 24 2 -5
BITMAP
E000
E000
E000
E000
E000
E000
E780
FFE0
F8F0
F070
E030
E038
E038
E038
E030
F070
F8E0
FFE0
EF80
E000
E000
E000
E000
E000
ENDCHAR
STARTCHAR 00FF
ENCODING 255
SWIDTH 530 0
DWIDTH 14 0
BBX 13 23 0 -5
BITMAP
1CE0
1CE0
1CC0
0000
0000
E018
7038
7030
3870
3860
1CE0
1CE0
0EC0
0FC0
0780
0780
0300
0700
0600
0E00
0C00
1C00
1C00
ENDCHAR
STARTCHAR 0131
ENCODING 305
SWIDTH 265 0
DWIDTH 7 0
BBX 3 13 2 0
BITMAP
E0
E0
E0
E0
E0
E0
E0
E0
E0
E0
E0
E0
E0
ENDCHAR
STARTCHAR 0141
ENCODING 321
SWIDTH 568 0
DWIDTH 15 0
BBX 14 19 0 0
BITMAP
1800
1800
1800
1800
1800
1800
1880
1B80
1F80
7E00
F800
D800
1800
1800
1800
1800
1800
1FFC
1FFC
ENDCHAR
STARTCHAR 0142
ENCODING 322
SWIDTH 303 0
DWIDTH 8 0
BBX 7 19 0 0
BITMAP
38
38
38
38
38
38
38
38
3E
3E
FC
F8
B8
38
38
38
38
38
38
ENDCHAR
STARTCHAR 0152
ENCODING 338
SWIDTH 1136 0
DWIDTH 30 0
BBX 28 19 1 0
BITMAP
01F8FFF0
0FFEFFF0
1E0FE000
3803E000
7001E000
7001E000
6000E000
E000E000
E000FFE0
E000FFE0
E000E000
E000E000
6000E000
7001E000
3001E000
3803E000
1E0FE000
0FFEFFF0
01F8FFF0
ENDCHAR
STARTCHAR 0153
ENCODING 339
SWIDTH 947 0
DWIDTH 25 0
BBX 23 13 1 0
BITMAP
0F83E0
3FE7F8
78FE3C
703C0C
E0380E
E03FFE
E03FFE
E03800
E03808
707C0C
78FE1C
3FE7F8
0F83E0
ENDCHAR
STARTCHAR 0160
ENCODING 352
SWIDTH 606 0
DWIDTH 16 0
BBX 13 23 1 0
BITMAP
1C60
0FC0
0780
0000
0FC0
1FF0
3CF0
7038
7018
6000
7000
7800
3F80
1FE0
03F0
0078
0038
E018
E018
7038
7CF0
3FF0
0FC0
ENDCHAR
STARTCHAR 0161
ENCODING 353
SWIDTH 454 0
DWIDTH 12 0
BBX 10 18 1 0
BITMAP
7380
3300
3E00
1E00
0000
1E00
7F80
7380
E180
E000
7C00
3F00
0F80
01C0
C1C0
F380
7F80
1E00
ENDCHAR
STARTCHAR 0178
ENCODING 376
SWIDTH 606 0
DWIDTH 16 0
BBX 15 23 1 0
BITMAP
1860
1C70
1860
0000
E00E
E01C
701C
7038
3830
1C70
1CE0
0EC0
0FC0
0780
0380
0300
0300
0300
0300
0300
0300
0300
0300
ENDCHAR
STARTCHAR 017D
ENCODING 381
SWIDTH 644 0
DWIDTH 17 0
BBX 15 23 1 0
BITMAP
1C70
0EE0
07C0
0000
FFFC
FFFC
001C
003C
0038
0070
00E0
01E0
03C0
0380
0700
0E00
1E00
1C00
3800
7000
E000
FFFE
FFFE
ENDCHAR
STARTCHAR 017E
ENCODING 382
SWIDTH 454 0
DWIDTH 12 0
BBX 10 18 1 0
BITMAP
7180
3F00
1E00
0000
0000
FFC0
FFC0
01C0
0380
0700
0E00
0E00
1C00
3800
7000
E000
FFC0
FFC0
ENDCHAR
STARTCHAR 0192
ENCODING 402
SWIDTH 492 0
DWIDTH 13 0
BBX 14 24 -1 -4
BITMAP
003C
00FC
00E0
01C0
01C0
0180
0180
1FF8
1FF8
0380
0300
0300
0300
0700
0700
0700
0600
0600
0E00
0E00
0E00
1C00
FC00
F800
ENDCHAR
STARTCHAR 02C6
ENCODING 710
SWIDTH 378 0
DWIDTH 10 0
BBX 8 4 1 14
BITMAP
3C
3E
66
E7
ENDCHAR
STARTCHAR 02C7
ENCODING 711
SWIDTH 378 0
DWIDTH 10 0
BBX 8 4 1 14
BITMAP
E7
66
3E
3C
ENDCHAR
STARTCHAR 02C9
ENCODING 713
SWIDTH 341 0
DWIDTH 9 0
BBX 7 2 1 15
BITMAP
FE
FE
ENDCHAR
STARTCHAR 02D8
ENCODING 728
SWIDTH 378 0
DWIDTH 10 0
BBX 8 4 1 14
BITMAP
C3
E6
7E
3C
ENDCHAR
STARTCHAR 02D9
ENCODING 729
SWIDTH 189 0
DWIDTH 5 0
BBX 3 3 1 15
BITMAP
E0
E0
C0
ENDCHAR
STARTCHAR 02DA
ENCODING 730
SWIDTH 303 0
DWIDTH 8 0
BBX 6 6 1 14
BITMAP
78
F8
CC
CC
F8
70
ENDCHAR
STARTCHAR 02DB
ENCODING 731
SWIDTH 227 0
DWIDTH 6 0
BBX 4 6 1 -6
BITMAP
30
E0
C0
C0
F0
70
ENDCHAR
STARTCHAR 02DC
ENCODING 732
SWIDTH 378 0
DWIDTH 10 0
BBX 8 3 1 15
BITMAP
73
FF
CE
ENDCHAR
STARTCHAR 02DD
ENCODING 733
SWIDTH 378 0
DWIDTH 10 0
BBX 7 4 1 14
BITMAP
76
6E
EC
C8
ENDCHAR
STARTCHAR 0394
ENCODING 916
SWIDTH 644 0
DWIDTH 17 0
BBX 17 19 0 0
BITMAP
01C000
01E000
03E000
036000
037000
073000
063800
0E3800
0E1800
0C1C00
1C1C00
1C0E00
180E00
380600
300700
700700
700380
7FFF80
FFFF80
ENDCHAR
STARTCHAR 03A9
ENCODING 937
SWIDTH 795 0
DWIDTH 21 0
BBX 19 19 1 0
BITMAP
03F800
0FFE00
1F3F00
3C0780
7001C0
7001C0
6000E0
E000E0
E000E0
E000E0
E000E0
6000C0
7001C0
380380
3C0780
1F1E00
071C00
FF1FE0
FF1FE0
ENDCHAR
STARTCHAR 03BC
ENCODING 956
SWIDTH 568 0
DWIDTH 15 0
BBX 11 18 2 -5
BITMAP
E0E0
E0E0
E0E0
E0E0
E0E0
E0E0
E0E0
E0E0
E0E0
E0E0
F0E0
FF60
FE60
E000
E000
E000
E000
E000
ENDCHAR
STARTCHAR 03C0
ENCODING 960
SWIDTH 606 0
DWIDTH 16 0
BBX 14 13 1 0
BITMAP
FFFC
FFFC
3870
3870
3870
3870
3870
3870
3870
3870
3870
383C
383C
ENDCHAR
STARTCHAR 2007
ENCODING 8199
SWIDTH 606 0
DWIDTH 16 0
BBX 0 0 0 0
BITMAP
ENDCHAR
STARTCHAR 2008
ENCODING 8200
SWIDTH 265 0
DWIDTH 7 0
BBX 0 0 0 0
BITMAP
ENDCHAR
STARTCHAR 200B
ENCODING 8203
SWIDTH 0 0
DWIDTH 0 0
BBX 0 0 0 0
BITMAP
ENDCHAR
STARTCHAR 2013
ENCODING 8211
SWIDTH 644 0
DWIDTH 17 0
BBX 13 2 2 7
BITMAP
FFF8
FFF8
ENDCHAR
STARTCHAR 2014
ENCODING 8212
SWIDTH 1098 0
DWIDTH 29 0
BBX 25 2 2 7
BITMAP
FFFFFF80
FFFFFF80
ENDCHAR
STARTCHAR 2018
ENCODING 8216
SWIDTH 227 0
DWIDTH 6 0
BBX 4 7 1 12
BITMAP
30
60
40
C0
E0
F0
60
ENDCHAR
STARTCHAR 2019
ENCODING 8217
SWIDTH 227 0
DWIDTH 6 0
BBX 4 7 1 12
BITMAP
60
F0
F0
30
20
60
C0
ENDCHAR
STARTCHAR 201A
ENCODING 8218
SWIDTH 227 0
DWIDTH 6 0
BBX 4 7 1 -4
BITMAP
60
F0
F0
30
20
60
C0
ENDCHAR
STARTCHAR 201C
ENCODING 8220
SWIDTH 378 0
DWIDTH 10 0
BBX 8 7 1 12
BITMAP
31
63
46
C4
E7
F7
67
ENDCHAR
STARTCHAR 201D
ENCODING 8221
SWIDTH 378 0
DWIDTH 10 0
BBX 8 7 1 12
BITMAP
67
F7
F7
31
23
66
C4
ENDCHAR
STARTCHAR 201E
ENCODING 8222
SWIDTH 378 0
DWIDTH 10 0
BBX 8 7 1 -4
BITMAP
67
F7
F7
31
23
66
C4
ENDCHAR
STARTCHAR 2020
ENCODING 8224
SWIDTH 378 0
DWIDTH 10 0
BBX 9 15 1 4
BITMAP
1800
1800
1800
1800
FF80
FF80
1800
1800
1800
1800
1800
1800
1800
1800
1800
ENDCHAR
STARTCHAR 2021
ENCODING 8225
SWIDTH 416 0
DWIDTH 11 0
BBX 9 19 1 0
BITMAP
0C00
0C00
0C00
0C00
FF80
FF80
0C00
0C00
0C00
0C00
0C00
0C00
0C00
FF80
FF80
0C00
0C00
0C00
0C00
ENDCHAR
STARTCHAR 2022
ENCODING 8226
SWIDTH 568 0
DWIDTH 15 0
BBX 11 11 2 2
BITMAP
1F00
3F80
7FC0
FFC0
FFE0
FFE0
FFE0
FFC0
7FC0
3F80
1F00
ENDCHAR
STARTCHAR 2026
ENCODING 8230
SWIDTH 947 0
DWIDTH 25 0
BBX 20 3 2 0
BITMAP
607070
F07070
607070
ENDCHAR
STARTCHAR 2030
ENCODING 8240
SWIDTH 1061 0
DWIDTH 28 0
BBX 26 17 1 0
BITMAP
1E038000
7F030000
63860000
E18E0000
E18C0000
63980000
7F380000
3E700000
00600000
00C79F00
01CFFF80
019CF180
031861C0
071861C0
0E1CF180
0C0FFF80
18079E00
ENDCHAR
STARTCHAR 2039
ENCODING 8249
SWIDTH 265 0
DWIDTH 7 0
BBX 5 10 1 3
BITMAP
18
38
30
60
E0
E0
60
30
38
18
ENDCHAR
STARTCHAR 203A
ENCODING 8250
SWIDTH 265 0
DWIDTH 7 0
BBX 5 10 1 3
BITMAP
C0
60
70
30
18
18
30
70
60
C0
ENDCHAR
STARTCHAR 2042
ENCODING 8258
SWIDTH 833 0
DWIDTH 22 0
BBX 20 19 1 0
BITMAP
006000
006000
026400
03FC00
01F800
00F000
01F800
019800
000000
000000
000000
180180
180180
FB0DF0
FF9FF0
1C0380
3E07C0
760660
220440
ENDCHAR
STARTCHAR 2044
ENCODING 8260
SWIDTH 568 0
DWIDTH 15 0
BBX 14 17 0 0
BITMAP
000C
001C
0038
0030
0060
00E0
00C0
0180
0380
0700
0600
0C00
1C00
1800
3000
7000
E000
ENDCHAR
STARTCHAR 2051
ENCODING 8273
SWIDTH 416 0
DWIDTH 11 0
BBX 9 19 1 0
BITMAP
0C00
0C00
4C80
FF80
3E00
1E00
3600
6300
0000
0000
0000
0C00
0C00
EF80
FF80
1C00
3600
3700
2200
ENDCHAR
STARTCHAR 2070
ENCODING 8304
SWIDTH 416 0
DWIDTH 11 0
BBX 8 10 2 9
BITMAP
3C
7E
C6
C7
C3
C3
C7
C6
FE
3C
ENDCHAR
STARTCHAR 2074
ENCODING 8308
SWIDTH 454 0
DWIDTH 12 0
BBX 8 10 2 9
BITMAP
0E
1E
3E
7E
6E
CE
FF
FF
0E
0E
ENDCHAR
STARTCHAR 2075
ENCODING 8309
SWIDTH 416 0
DWIDTH 11 0
BBX 7 10 2 9
BITMAP
7E
7E
40
D0
FC
46
06
C6
FE
78
ENDCHAR
STARTCHAR 2076
ENCODING 8310
SWIDTH 416 0
DWIDTH 11 0
BBX 7 10 2 9
BITMAP
1E
7E
E0
D8
FE
C6
C6
C6
FE
3C
ENDCHAR
STARTCHAR 2077
ENCODING 8311
SWIDTH 416 0
DWIDTH 11 0
BBX 7 10 2 9
BITMAP
FE
FE
0E
1C
18
38
30
30
70
60
ENDCHAR
STARTCHAR 2078
ENCODING 8312
SWIDTH 416 0
DWIDTH 11 0
BBX 7 10 2 9
BITMAP
7C
FE
C6
C6
7C
FE
C6
C6
FE
7C
ENDCHAR
STARTCHAR 2079
ENCODING 8313
SWIDTH 416 0
DWIDTH 11 0
BBX 7 10 2 9
BITMAP
78
FE
C6
C6
C6
FE
36
06
FC
F8
ENDCHAR
STARTCHAR 2080
ENCODING 8320
SWIDTH 416 0
DWIDTH 11 0
BBX 8 10 2 -2
BITMAP
3C
7E
C6
C7
C3
C3
C7
C6
FE
3C
ENDCHAR
STARTCHAR 2081
ENCODING 8321
SWIDTH 303 0
DWIDTH 8 0
BBX 5 10 1 -2
BITMAP
18
38
F8
18
18
18
18
18
18
18
ENDCHAR
STARTCHAR 2082
ENCODING 8322
SWIDTH 378 0
DWIDTH 10 0
BBX 7 10 2 -2
BITMAP
78
FC
CE
C6
0C
3C
70
E0
FE
FE
ENDCHAR
STARTCHAR 2083
ENCODING 8323
SWIDTH 416 0
DWIDTH 11 0
BBX 7 10 2 -2
BITMAP
FE
FE
0C
18
3C
0E
06
C6
FE
7C
ENDCHAR
STARTCHAR 2084
ENCODING 8324
SWIDTH 454 0
DWIDTH 12 0
BBX 8 10 2 -2
BITMAP
0E
1E
3E
3E
6E
CE
FF
FF
0E
0E
ENDCHAR
STARTCHAR 2085
ENCODING 8325
SWIDTH 416 0
DWIDTH 11 0
BBX 7 10 2 -2
BITMAP
7E
7E
40
D0
FC
46
06
C6
FE
78
ENDCHAR
STARTCHAR 2086
ENCODING 8326
SWIDTH 416 0
DWIDTH 11 0
BBX 7 10 2 -2
BITMAP
1E
7E
E0
D8
FE
C6
C6
C6
FE
3C
ENDCHAR
STARTCHAR 2087
ENCODING 8327
SWIDTH 416 0
DWIDTH 11 0
BBX 7 10 2 -2
BITMAP
FE
FE
0E
0C
18
38
30
30
70
60
ENDCHAR
STARTCHAR 2088
ENCODING 8328
SWIDTH 416 0
DWIDTH 11 0
BBX 7 10 2 -2
BITMAP
7C
FE
C6
C6
7C
FE
C6
C6
FE
7C
ENDCHAR
STARTCHAR 2089
ENCODING 8329
SWIDTH 416 0
DWIDTH 11 0
BBX 7 10 2 -2
BITMAP
78
FE
C6
C6
C6
FE
36
06
FC
F8
ENDCHAR
STARTCHAR 20AC
ENCODING 8364
SWIDTH 682 0
DWIDTH 18 0
BBX 15 17 2 0
BITMAP
00F8
07FE
0F8C
1E00
1C00
3800
FFF0
FFF0
3000
3000
FFC0
FFC0
3800
1C00
0F8E
07FE
01F8
ENDCHAR
STARTCHAR 2113
ENCODING 8467
SWIDTH 416 0
DWIDTH 11 0
BBX 9 17 1 0
BITMAP
1E00
3F00
3B80
3380
3380
3380
3300
3700
3E00
3C00
F800
F000
3000
3000
3900
3F00
0F00
ENDCHAR
STARTCHAR 2122
ENCODING 8482
SWIDTH 871 0
DWIDTH 23 0
BBX 20 10 1 9
BITMAP
FF7070
FF7870
187870
1878F0
186CF0
186DB0
1867B0
1867B0
186730
186330
ENDCHAR
STARTCHAR 2126
ENCODING 8486
SWIDTH 795 0
DWIDTH 21 0
BBX 19 19 1 0
BITMAP
03F800
0FFE00
1F3F00
3C0780
7001C0
7001C0
6000E0
E000E0
E000E0
E000E0
E000E0
6000C0
7001C0
380380
3C0780
1F1E00
071C00
FF1FE0
FF1FE0
ENDCHAR
STARTCHAR 2160
ENCODING 8544
SWIDTH 492 0
DWIDTH 13 0
BBX 11 17 1 0
BITMAP
FFE0
FFE0
0E00
0E00
0E00
0E00
0E00
0E00
0E00
0E00
0E00
0E00
0E00
0E00
0E00
FFE0
FFE0
ENDCHAR
STARTCHAR 2161
ENCODING 8545
SWIDTH 757 0
DWIDTH 20 0
BBX 18 17 1 0
BITMAP
FFFFC0
FFFFC0
0E0C00
0E0C00
0E0C00
0E0C00
0E0C00
0E0C00
0E0C00
0E0C00
0E0C00
0E0C00
0E0C00
0E0C00
0E0C00
FFFFC0
FFFFC0
ENDCHAR
STARTCHAR 2162
ENCODING 8546
SWIDTH 1061 0
DWIDTH 28 0
BBX 25 17 1 0
BITMAP
FFFFFF80
FFFFFF80
0E1C1800
0E1C1800
0E1C1800
0E1C1800
0E1C1800
0E1C1800
0E1C1800
0E1C1800
0E1C1800
0E1C1800
0E1C1800
0E1C1800
0E1C1800
FFFFFF80
FFFFFF80
ENDCHAR
STARTCHAR 2163
ENCODING 8547
SWIDTH 1023 0
DWIDTH 27 0
BBX 24 17 1 0
BITMAP
FFFFFF
FFFFFF
0C6038
0C7038
0C7030
0C3070
0C3870
0C3860
0C18E0
0C1CE0
0C1CC0
0C0DC0
0C0F80
0C0F80
0C0780
FFFFFF
FFFFFF
ENDCHAR
STARTCHAR 2164
ENCODING 8548
SWIDTH 795 0
DWIDTH 21 0
BBX 19 17 1 0
BITMAP
FFFFE0
FFFFE0
1C0700
0C0600
0E0E00
0E0E00
060C00
070C00
071C00
031800
039800
03B800
01B000
01F000
01F000
7FFFE0
7FFFE0
ENDCHAR
STARTCHAR 2165
ENCODING 8549
SWIDTH 1023 0
DWIDTH 27 0
BBX 24 17 1 0
BITMAP
FFFFFF
FFFFFF
0C0738
0E0738
0E0638
060E38
070E38
070C38
031C38
039838
039838
01B838
01B038
01F038
00F038
FFFFFF
FFFFFF
ENDCHAR
STARTCHAR 2166
ENCODING 8550
SWIDTH 1288 0
DWIDTH 34 0
BBX 32 17 1 0
BITMAP
FFFFFFFF
FFFFFFFF
0C073870
0E073870
0E063870
060E3870
070C3870
070C3870
031C3870
03183870
03983870
01B83870
01B03870
01F03870
00F03870
FFFFFFFF
FFFFFFFF
ENDCHAR
STARTCHAR 2167
ENCODING 8551
SWIDTH 1553 0
DWIDTH 41 0
BBX 38 17 1 0
BITMAP
FFFFFFFFFC
FFFFFFFFFC
0C073070E0
0E063070E0
0E0E3070E0
060E3070E0
060C3070E0
071C3070E0
031C3070E0
03183070E0
03983070E0
01B83070E0
01B03070E0
01F03070E0
00F03070E0
FFFFFFFFFC
FFFFFFFFFC
ENDCHAR
STARTCHAR 2168
ENCODING 8552
SWIDTH 985 0
DWIDTH 26 0
BBX 23 17 1 0
BITMAP
FFFFFE
FFFFFE
0C7070
0C3070
0C38E0
0C1DC0
0C0DC0
0C0F80
0C0700
0C0780
0C0F80
0C1DC0
0C38E0
0C3860
0C7070
FFFFFE
FFFFFE
ENDCHAR
STARTCHAR 2169
ENCODING 8553
SWIDTH 757 0
DWIDTH 20 0
BBX 18 17 1 0
BITMAP
FFFFC0
FFFFC0
1C0E00
0E1C00
071800
073800
03F000
01E000
00E000
01E000
03F000
033000
073800
0E1C00
1C0E00
FFFFC0
FFFFC0
ENDCHAR
STARTCHAR 216C
ENCODING 8556
SWIDTH 644 0
DWIDTH 17 0
BBX 15 17 1 0
BITMAP
FFC0
FFC0
0C00
0C00
0C00
0C00
0C00
0C00
0C00
0C00
0C0E
0C0E
0C0E
0C0E
0C0E
FFFE
FFFE
ENDCHAR
STARTCHAR 216D
ENCODING 8557
SWIDTH 720 0
DWIDTH 19 0
BBX 17 17 1 0
BITMAP
03F380
0FFF80
1C0F80
380780
700380
600380
600000
600000
E00000
E00000
600000
700380
700380
380780
1F3F80
0FFB80
03F380
ENDCHAR
STARTCHAR 216E
ENCODING 8558
SWIDTH 720 0
DWIDTH 19 0
BBX 17 17 1 0
BITMAP
FFF000
FFFC00
0E3E00
0E0F00
0E0700
0E0380
0E0380
0E0380
0E0380
0E0380
0E0380
0E0380
0E0700
0E0F00
0E3E00
FFFC00
FFF000
ENDCHAR
STARTCHAR 216F
ENCODING 8559
SWIDTH 1061 0
DWIDTH 28 0
BBX 26 17 1 0
BITMAP
FF003FC0
FF003FC0
0F803C00
0F807C00
0D806C00
0DC0EC00
0CC0EC00
0CE0CC00
0CE1CC00
0C618C00
0C738C00
0C330C00
0C3F0C00
0C3F0C00
0C1E0C00
FF9E7FC0
FF8C7FC0
ENDCHAR
STARTCHAR 2190
ENCODING 8592
SWIDTH 1023 0
DWIDTH 27 0
BBX 25 9 0 3
BITMAP
04000000
0C000000
3C000000
7FFFFF80
FFFFFF80
3C000000
1C000000
0C000000
04000000
ENDCHAR
STARTCHAR 2191
ENCODING 8593
SWIDTH 454 0
DWIDTH 12 0
BBX 9 25 2 -4
BITMAP
0800
1C00
3C00
7E00
7F00
FF80
1800
1800
1800
1800
1800
1800
1800
1800
1800
1800
1800
1800
1800
1800
1800
1800
1800
1800
1800
ENDCHAR
STARTCHAR 2192
ENCODING 8594
SWIDTH 1023 0
DWIDTH 27 0
BBX 24 11 1 2
BITMAP
000020
000030
00003C
00003E
FFFFFF
FFFFFF
00003E
00003C
000038
000030
000020
ENDCHAR
STARTCHAR 2193
ENCODING 8595
SWIDTH 454 0
DWIDTH 12 0
BBX 11 25 0 -4
BITMAP
0E00
0E00
0E00
0E00
0E00
0E00
0E00
0E00
0E00
0E00
0E00
0E00
0E00
0E00
0E00
0E00
0E00
0E00
FFE0
7FC0
3F80
1F00
1F00
0E00
0400
ENDCHAR
STARTCHAR 2196
ENCODING 8598
SWIDTH 871 0
DWIDTH 23 0
BBX 19 19 1 0
BITMAP
FF0000
FE0000
FC0000
F80000
FC0000
EE0000
C70000
838000
01C000
00E000
007000
003800
001C00
000E00
000700
000380
0001C0
0000E0
000040
ENDCHAR
STARTCHAR 2197
ENCODING 8599
SWIDTH 757 0
DWIDTH 20 0
BBX 19 19 -1 0
BITMAP
000FE0
0007E0
0003E0
0003E0
0007E0
000EE0
001C60
003820
007000
00E000
01C000
038000
070000
0E0000
1C0000
380000
700000
E00000
400000
ENDCHAR
STARTCHAR 2198
ENCODING 8600
SWIDTH 871 0
DWIDTH 23 0
BBX 19 19 1 0
BITMAP
400000
F00000
780000
380000
1C0000
0E0000
070000
038000
01C000
00E000
007000
003800
001C20
000E60
0007E0
0003E0
0003E0
0007E0
000FE0
ENDCHAR
STARTCHAR 2199
ENCODING 8601
SWIDTH 757 0
DWIDTH 20 0
BBX 19 19 1 0
BITMAP
000040
0000E0
0001C0
000380
000700
000E00
001C00
003800
007000
00E000
01C000
038000
870000
CE0000
FC0000
F80000
F80000
FC0000
FE0000
ENDCHAR
STARTCHAR 21A9
ENCODING 8617
SWIDTH 833 0
DWIDTH 22 0
BBX 21 14 0 3
BITMAP
003FC0
003FF0
000070
000038
000018
040018
0C0018
1C0038
3C0070
FFFFE0
7FFFC0
3C0000
0C0000
040000
ENDCHAR
STARTCHAR 21B0
ENCODING 8624
SWIDTH 757 0
DWIDTH 20 0
BBX 16 19 2 0
BITMAP
0800
1800
3800
7800
FFFF
FFFF
7803
3803
0803
0003
0003
0003
0003
0003
0003
0003
0003
0003
0003
ENDCHAR
STARTCHAR 21B1
ENCODING 8625
SWIDTH 720 0
DWIDTH 19 0
BBX 18 19 1 0
BITMAP
000800
000C00
000E00
000F00
FFFFC0
FFFF80
C00F00
C00E00
C00C00
C00800
C00000
C00000
C00000
C00000
C00000
C00000
C00000
C00000
C00000
ENDCHAR
STARTCHAR 21B2
ENCODING 8626
SWIDTH 757 0
DWIDTH 20 0
BBX 18 19 0 0
BITMAP
0000C0
0000C0
0000C0
0000C0
0000C0
0000C0
0000C0
0000C0
0000C0
0400C0
0C00C0
1C00C0
3C00C0
FFFFC0
FFFFC0
7C0000
1C0000
0C0000
040000
ENDCHAR
STARTCHAR 21B3
ENCODING 8627
SWIDTH 833 0
DWIDTH 22 0
BBX 18 19 2 0
BITMAP
C00000
C00000
C00000
C00000
C00000
C00000
C00000
C00000
C00000
C00800
C00C00
C00E00
C00F00
FFFFC0
FFFFC0
000F80
000E00
000C00
000800
ENDCHAR
STARTCHAR 21B4
ENCODING 8628
SWIDTH 795 0
DWIDTH 21 0
BBX 19 19 1 0
BITMAP
FFFF00
FFFF00
000300
000300
000300
000300
000300
000300
000300
000300
000300
000300
000300
003FE0
001FC0
000FC0
000780
000700
000200
ENDCHAR
STARTCHAR 21C6
ENCODING 8646
SWIDTH 1098 0
DWIDTH 29 0
BBX 25 19 2 0
BITMAP
08000000
08000000
38000000
78000000
FFFFFF80
FFFFFF80
78000000
18000000
08000000
00000000
00000800
00000C00
00000F00
FFFFFF80
FFFFFF80
00000F00
00000E00
00000C00
00000800
ENDCHAR
STARTCHAR 2202
ENCODING 8706
SWIDTH 606 0
DWIDTH 16 0
BBX 14 19 1 0
BITMAP
1F80
7FE0
31F0
0070
0038
0018
001C
0FDC
3FFC
787C
701C
E01C
E01C
E018
E038
7038
78F0
3FE0
0F80
ENDCHAR
STARTCHAR 2206
ENCODING 8710
SWIDTH 644 0
DWIDTH 17 0
BBX 17 19 0 0
BITMAP
01C000
01E000
03E000
036000
037000
073000
063800
0E3800
0E1800
0C1C00
1C1C00
1C0E00
180E00
380600
300700
700700
700380
7FFF80
FFFF80
ENDCHAR
STARTCHAR 220F
ENCODING 8719
SWIDTH 682 0
DWIDTH 18 0
BBX 14 19 2 0
BITMAP
FFFC
FFFC
E01C
E01C
E01C
E01C
E01C
E01C
E01C
E01C
E01C
E01C
E01C
E01C
E01C
E01C
E01C
E01C
E01C
ENDCHAR
STARTCHAR 2211
ENCODING 8721
SWIDTH 568 0
DWIDTH 15 0
BBX 13 19 1 0
BITMAP
FFF8
FFF8
F000
7800
3C00
1E00
0F00
0780
03C0
01E0
03C0
0780
0F00
1E00
3C00
7800
F000
FFF8
FFF8
ENDCHAR
STARTCHAR 2212
ENCODING 8722
SWIDTH 530 0
DWIDTH 14 0
BBX 12 2 1 7
BITMAP
FFF0
FFF0
ENDCHAR
STARTCHAR 2215
ENCODING 8725
SWIDTH 416 0
DWIDTH 11 0
BBX 10 17 0 0
BITMAP
00C0
00C0
0180
0180
0300
0300
0700
0600
0E00
0C00
1C00
1800
3800
3000
7000
6000
E000
ENDCHAR
STARTCHAR 2219
ENCODING 8729
SWIDTH 265 0
DWIDTH 7 0
BBX 4 3 2 6
BITMAP
E0
F0
E0
ENDCHAR
STARTCHAR 221A
ENCODING 8730
SWIDTH 682 0
DWIDTH 18 0
BBX 17 23 1 0
BITMAP
000F80
000F80
000C00
001C00
001C00
001800
003800
003800
003000
E07000
E07000
706000
70E000
30E000
38C000
39C000
19C000
1D8000
1F8000
0F8000
0F0000
0F0000
060000
ENDCHAR
STARTCHAR 221E
ENCODING 8734
SWIDTH 795 0
DWIDTH 21 0
BBX 19 9 1 3
BITMAP
3E0F80
7F9FC0
63B8E0
E1F060
C0E060
E1F060
63B8E0
7F1FC0
1E0F00
ENDCHAR
STARTCHAR 222B
ENCODING 8747
SWIDTH 303 0
DWIDTH 8 0
BBX 8 24 0 -5
BITMAP
07
0F
1C
18
18
18
18
18
18
18
18
18
18
18
18
18
18
18
18
18
18
38
F8
E0
ENDCHAR
STARTCHAR 2248
ENCODING 8776
SWIDTH 568 0
DWIDTH 15 0
BBX 13 9 1 3
BITMAP
7C00
FF18
47F8
01E0
0000
3C00
7F18
EFF8
01F0
ENDCHAR
STARTCHAR 2260
ENCODING 8800
SWIDTH 606 0
DWIDTH 16 0
BBX 12 13 2 1
BITMAP
0060
00E0
00C0
FFF0
FFF0
0700
0600
0C00
FFF0
FFF0
3000
7000
E000
ENDCHAR
STARTCHAR 2264
ENCODING 8804
SWIDTH 530 0
DWIDTH 14 0
BBX 11 13 2 1
BITMAP
0060
03E0
0FC0
7E00
F000
F000
FE00
1FC0
03E0
0060
0000
FFE0
FFE0
ENDCHAR
STARTCHAR 2265
ENCODING 8805
SWIDTH 530 0
DWIDTH 14 0
BBX 11 13 2 1
BITMAP
8000
F000
FE00
1F80
03E0
01E0
0FC0
7E00
F000
8000
0000
FFE0
FFE0
ENDCHAR
STARTCHAR 22C5
ENCODING 8901
SWIDTH 265 0
DWIDTH 7 0
BBX 4 3 2 6
BITMAP
E0
F0
E0
ENDCHAR
STARTCHAR 24C5
ENCODING 9413
SWIDTH 833 0
DWIDTH 22 0
BBX 19 19 1 0
BITMAP
01F800
07FE00
1E0700
380380
31F1C0
61FCE0
618C60
E18C60
C18C60
C1FC60
C1F860
E18060
618060
6180E0
3180C0
380180
1E0700
07FE00
01F800
ENDCHAR
STARTCHAR 25A0
ENCODING 9632
SWIDTH 909 0
DWIDTH 24 0
BBX 18 19 3 0
BITMAP
FFFFC0
FFFFC0
FFFFC0
FFFFC0
FFFFC0
FFFFC0
FFFFC0
FFFFC0
FFFFC0
FFFFC0
FFFFC0
FFFFC0
FFFFC0
FFFFC0
FFFFC0
FFFFC0
FFFFC0
FFFFC0
FFFFC0
ENDCHAR
STARTCHAR 25A1
ENCODING 9633
SWIDTH 909 0
DWIDTH 24 0
BBX 18 19 3 0
BITMAP
FFFFC0
FFFFC0
C000C0
C000C0
C000C0
C000C0
C000C0
C000C0
C000C0
C000C0
C000C0
C000C0
C000C0
C000C0
C000C0
C000C0
C000C0
FFFFC0
FFFFC0
ENDCHAR
STARTCHAR 25B2
ENCODING 9650
SWIDTH 833 0
DWIDTH 22 0
BBX 22 19 0 0
BITMAP
002000
003000
003800
007800
00FC00
00FC00
01FE00
01FE00
03FF00
03FF80
07FF80
0FFFC0
0FFFC0
1FFFE0
1FFFE0
3FFFF0
7FFFF8
7FFFF8
FFFFFC
ENDCHAR
STARTCHAR 25B3
ENCODING 9651
SWIDTH 833 0
DWIDTH 22 0
BBX 22 19 0 0
BITMAP
002000
003000
003800
007800
00FC00
00CC00
01CE00
018600
038700
030380
060180
0E01C0
0C00C0
1C00E0
180060
380070
700038
7FFFF8
FFFFFC
ENDCHAR
STARTCHAR 25CA
ENCODING 9674
SWIDTH 568 0
DWIDTH 15 0
BBX 13 19 1 0
BITMAP
0700
0F00
0F80
1D80
19C0
38E0
30E0
7070
E070
E038
E070
7070
30E0
38E0
19C0
1D80
0F80
0F00
0700
ENDCHAR
STARTCHAR 25CB
ENCODING 9675
SWIDTH 833 0
DWIDTH 22 0
BBX 20 19 1 0
BITMAP
01F800
07FE00
1F0F80
3C03C0
3001C0
7000E0
600060
E00070
C00070
C00070
E00070
E00070
600060
7000E0
3000C0
3C03C0
1F0F80
07FE00
01F800
ENDCHAR
STARTCHAR 25CF
ENCODING 9679
SWIDTH 833 0
DWIDTH 22 0
BBX 20 19 1 0
BITMAP
01F800
07FE00
1FFF80
3FFFC0
3FFFC0
7FFFE0
7FFFE0
FFFFF0
FFFFF0
FFFFF0
FFFFF0
FFFFF0
7FFFE0
7FFFE0
3FFFC0
3FFFC0
1FFF80
07FE00
01F800
ENDCHAR
STARTCHAR 262E
ENCODING 9774
SWIDTH 833 0
DWIDTH 22 0
BBX 19 19 1 0
BITMAP
01F800
07FE00
1E6700
386380
3060C0
6060E0
606060
E06060
C0E060
C1F060
C3F860
E77C60
6E6E60
7C67E0
3863C0
386180
1E6700
07FE00
01F800
ENDCHAR
STARTCHAR 2713
ENCODING 10003
SWIDTH 985 0
DWIDTH 26 0
BBX 24 19 1 0
BITMAP
000002
000007
00000E
00001C
000038
000070
0000E0
0001C0
000380
000700
C00E00
E01C00
703800
387000
1CE000
0EC000
07C000
038000
010000
ENDCHAR
STARTCHAR 2715
ENCODING 10005
SWIDTH 757 0
DWIDTH 20 0
BBX 18 19 1 0
BITMAP
400080
E001C0
700380
380700
1C0E00
1E1C00
0F3800
07F000
03E000
01E000
03E000
07F000
0F3800
0E1C00
1C0E00
380700
700380
E001C0
400080
ENDCHAR
STARTCHAR 2780
ENCODING 10112
SWIDTH 833 0
DWIDTH 22 0
BBX 19 19 1 0
BITMAP
01F800
07FE00
1E0700
380380
3001C0
6060E0
60E060
E1E060
C06060
C06060
C06060
E06060
606060
6060E0
3000C0
380180
1E0700
07FE00
01F800
ENDCHAR
STARTCHAR 2781
ENCODING 10113
SWIDTH 833 0
DWIDTH 22 0
BBX 19 19 1 0
BITMAP
01F800
07FE00
1E0700
380380
3060C0
61F8E0
639860
C31860
C01860
C07060
C0E060
E18060
63F860
63F8E0
3000C0
380380
1E0700
07FE00
01F800
ENDCHAR
STARTCHAR 2782
ENCODING 10114
SWIDTH 833 0
DWIDTH 22 0
BBX 19 19 1 0
BITMAP
01F800
07FE00
1E0700
180380
3001C0
63F8E0
63F860
603060
C0E060
C0F860
C01860
C11860
631860
63F8E0
30E0C0
380180
1E0700
0FFE00
01F800
ENDCHAR
STARTCHAR 2783
ENCODING 10115
SWIDTH 833 0
DWIDTH 22 0
BBX 19 19 1 0
BITMAP
01F800
07FE00
1E0700
380380
3000C0
6070E0
60F060
C1F060
C1B060
C33060
C7FC60
E7FC60
603060
6030E0
3001C0
380380
1E0700
07FE00
01F800
ENDCHAR
STARTCHAR 2784
ENCODING 10116
SWIDTH 833 0
DWIDTH 22 0
BBX 19 19 1 0
BITMAP
01F800
07FE00
1E0700
380380
3001C0
61F8E0
61F860
E10060
C3F060
C3F860
C01860
E11860
631860
63F0E0
30E0C0
380180
1E0700
07FE00
01F800
ENDCHAR
STARTCHAR 2785
ENCODING 10117
SWIDTH 833 0
DWIDTH 22 0
BBX 19 19 1 0
BITMAP
01F800
07FE00
1E0700
380380
3030C0
60F8E0
618060
E30060
C3F060
C3F860
C31860
E31860
63F860
61F0E0
3001C0
380380
1E0700
07FE00
01F800
ENDCHAR
STARTCHAR 2786
ENCODING 10118
SWIDTH 833 0
DWIDTH 22 0
BBX 19 19 1 0
BITMAP
01F800
07FE00
1E0700
380380
3001C0
63FCE0
63FC60
E03860
C03060
C06060
C06060
E0C060
60C060
60C0E0
3000C0
380180
1E0700
07FE00
01F800
ENDCHAR
STARTCHAR 2787
ENCODING 10119
SWIDTH 833 0
DWIDTH 22 0
BBX 19 19 1 0
BITMAP
01F800
07FE00
1E0700
380180
3060C0
61F8E0
639860
C31860
C1F860
C1F060
C31860
E31C60
63F860
71F0E0
3001C0
380380
1E0700
07FE00
01F800
ENDCHAR
STARTCHAR 2788
ENCODING 10120
SWIDTH 833 0
DWIDTH 22 0
BBX 19 19 1 0
BITMAP
01F800
07FE00
1E0780
3801C0
3060C0
61F8E0
631860
C30C60
C31C60
C3FC60
C1EC60
E01860
603860
61F0E0
31C0C0
380180
1E0700
07FE00
01F800
ENDCHAR
STARTCHAR E000
ENCODING 57344
SWIDTH 795 0
DWIDTH 21 0
BBX 19 19 1 0
BITMAP
0FFFE0
0FFFE0
0C0000
0C0000
0C0000
0C0000
0C0000
0C0000
0C0000
0C0000
0C0000
0C0000
0C0000
FF8000
7F8000
3F0000
1E0000
0C0000
080000
ENDCHAR
STARTCHAR E001
ENCODING 57345
SWIDTH 1098 0
DWIDTH 29 0
BBX 27 19 1 0
BITMAP
003F8000
00FFC000
01E1C000
03800000
07000000
06000600
0E000F00
0C001F80
0C003FC0
FC407FE0
7F800600
3F000600
1E000E00
0C000C00
00001C00
00003800
0060F000
007FE000
003F0000
ENDCHAR
STARTCHAR E002
ENCODING 57346
SWIDTH 947 0
DWIDTH 25 0
BBX 23 19 1 0
BITMAP
01F800
07FE00
0F0C00
1C0000
380020
700070
6000F8
6000F8
E001FC
E003FE
E00030
600070
600060
7000E0
3800C0
3C01C0
1F0F80
07FE00
01F800
ENDCHAR
STARTCHAR FB00
ENCODING 64256
SWIDTH 644 0
DWIDTH 17 0
BBX 16 19 1 0
BITMAP
0F0F
1F1F
3838
3838
3038
3038
FFFF
FFFF
3038
3038
3038
3038
3038
3038
3038
3038
3038
3038
3038
ENDCHAR
STARTCHAR FB01
ENCODING 64257
SWIDTH 606 0
DWIDTH 16 0
BBX 13 20 1 0
BITMAP
0038
0F38
1F38
3838
3000
3000
3000
FFF8
FFF8
3038
3038
3038
3038
3038
3038
3038
3038
3038
3038
3038
ENDCHAR
STARTCHAR FB02
ENCODING 64258
SWIDTH 606 0
DWIDTH 16 0
BBX 13 19 1 0
BITMAP
0F38
1F38
3C38
3838
3038
3038
FFF8
FFF8
3038
3038
3038
3038
3038
3038
3038
3038
3038
3038
3038
ENDCHAR
STARTCHAR FB03
ENCODING 64259
SWIDTH 909 0
DWIDTH 24 0
BBX 22 20 1 0
BITMAP
000018
0F0F3C
1F1F3C
383818
383800
303800
303800
FFFFF8
FFFFF8
303818
303818
303818
303818
303818
303818
303818
303818
303818
303818
303818
ENDCHAR
STARTCHAR FB04
ENCODING 64260
SWIDTH 909 0
DWIDTH 24 0
BBX 21 19 1 0
BITMAP
0F0F18
1F1F18
3C1C18
383818
303818
303818
FFFFF8
FFFFF8
303818
303818
303818
303818
303818
303818
303818
303818
303818
303818
303818
ENDCHAR
STARTCHAR FEFF
ENCODING 65279
SWIDTH 0 0
DWIDTH 0 0
BBX 0 0 0 0
BITMAP
ENDCHAR
ENDFONT
